G04*
G04 #@! TF.GenerationSoftware,Altium Limited,Altium Designer,21.2.1 (34)*
G04*
G04 Layer_Color=32896*
%FSLAX25Y25*%
%MOIN*%
G70*
G04*
G04 #@! TF.SameCoordinates,E791EE2E-FBA0-4324-A9C2-BCC3054153F0*
G04*
G04*
G04 #@! TF.FilePolarity,Positive*
G04*
G01*
G75*
%ADD10C,0.01000*%
%ADD11C,0.00787*%
%ADD12C,0.00984*%
%ADD15C,0.00700*%
%ADD16C,0.00500*%
%ADD67C,0.01181*%
%ADD75C,0.02362*%
G36*
X379806Y49659D02*
X371906D01*
Y47359D01*
X379806D01*
Y49659D01*
D02*
G37*
D10*
X739013Y111865D02*
X738953Y112870D01*
X738775Y113861D01*
X738481Y114825D01*
X738075Y115746D01*
X737563Y116613D01*
X736951Y117414D01*
X736250Y118137D01*
X735468Y118771D01*
X734616Y119309D01*
X733707Y119742D01*
X732753Y120064D01*
X731768Y120272D01*
X730764Y120361D01*
X729758Y120331D01*
X728762Y120183D01*
X727790Y119917D01*
X726857Y119539D01*
X725975Y119053D01*
X725157Y118465D01*
X724414Y117786D01*
X723756Y117023D01*
X723194Y116187D01*
X722734Y115292D01*
X722383Y114347D01*
X722147Y113368D01*
X722027Y112369D01*
Y111361D01*
X722147Y110361D01*
X722383Y109382D01*
X722734Y108438D01*
X723194Y107542D01*
X723756Y106707D01*
X724414Y105944D01*
X725157Y105264D01*
X725975Y104677D01*
X726857Y104191D01*
X727790Y103813D01*
X728762Y103547D01*
X729758Y103399D01*
X730764Y103369D01*
X731768Y103458D01*
X732753Y103665D01*
X733707Y103988D01*
X734616Y104421D01*
X735468Y104959D01*
X736250Y105593D01*
X736951Y106316D01*
X737563Y107116D01*
X738075Y107984D01*
X738481Y108905D01*
X738775Y109868D01*
X738953Y110860D01*
X739013Y111865D01*
X514013Y111865D02*
X513953Y112870D01*
X513775Y113861D01*
X513481Y114825D01*
X513075Y115746D01*
X512563Y116613D01*
X511951Y117414D01*
X511250Y118137D01*
X510468Y118771D01*
X509616Y119309D01*
X508707Y119742D01*
X507753Y120064D01*
X506768Y120272D01*
X505764Y120361D01*
X504758Y120331D01*
X503762Y120183D01*
X502790Y119917D01*
X501857Y119539D01*
X500975Y119053D01*
X500157Y118465D01*
X499414Y117786D01*
X498756Y117023D01*
X498194Y116187D01*
X497734Y115292D01*
X497383Y114347D01*
X497147Y113368D01*
X497027Y112369D01*
Y111361D01*
X497147Y110361D01*
X497383Y109382D01*
X497734Y108438D01*
X498194Y107542D01*
X498756Y106707D01*
X499414Y105944D01*
X500157Y105264D01*
X500975Y104677D01*
X501857Y104191D01*
X502790Y103813D01*
X503762Y103547D01*
X504758Y103399D01*
X505764Y103369D01*
X506768Y103458D01*
X507753Y103665D01*
X508707Y103988D01*
X509616Y104421D01*
X510468Y104959D01*
X511250Y105593D01*
X511951Y106316D01*
X512563Y107116D01*
X513075Y107984D01*
X513481Y108905D01*
X513775Y109868D01*
X513953Y110860D01*
X514013Y111865D01*
X120256Y336865D02*
X120197Y337870D01*
X120018Y338861D01*
X119724Y339825D01*
X119318Y340746D01*
X118806Y341613D01*
X118195Y342414D01*
X117494Y343137D01*
X116712Y343771D01*
X115860Y344309D01*
X114951Y344742D01*
X113997Y345064D01*
X113011Y345272D01*
X112008Y345361D01*
X111002Y345331D01*
X110005Y345183D01*
X109034Y344917D01*
X108101Y344539D01*
X107219Y344053D01*
X106401Y343465D01*
X105657Y342786D01*
X105000Y342023D01*
X104437Y341187D01*
X103978Y340292D01*
X103627Y339347D01*
X103390Y338369D01*
X103271Y337368D01*
Y336361D01*
X103390Y335361D01*
X103627Y334382D01*
X103978Y333438D01*
X104437Y332542D01*
X105000Y331707D01*
X105657Y330944D01*
X106401Y330264D01*
X107219Y329677D01*
X108101Y329191D01*
X109034Y328813D01*
X110005Y328547D01*
X111002Y328398D01*
X112008Y328369D01*
X113011Y328458D01*
X113997Y328665D01*
X114951Y328988D01*
X115860Y329421D01*
X116712Y329959D01*
X117494Y330593D01*
X118195Y331316D01*
X118806Y332116D01*
X119318Y332984D01*
X119724Y333905D01*
X120018Y334868D01*
X120197Y335860D01*
X120256Y336865D01*
X195257Y336865D02*
X195197Y337870D01*
X195019Y338861D01*
X194725Y339825D01*
X194319Y340746D01*
X193807Y341613D01*
X193195Y342414D01*
X192494Y343137D01*
X191712Y343771D01*
X190860Y344309D01*
X189951Y344742D01*
X188997Y345064D01*
X188012Y345272D01*
X187009Y345361D01*
X186002Y345331D01*
X185006Y345183D01*
X184034Y344917D01*
X183101Y344539D01*
X182219Y344053D01*
X181401Y343465D01*
X180658Y342786D01*
X180000Y342023D01*
X179438Y341187D01*
X178978Y340292D01*
X178627Y339347D01*
X178391Y338369D01*
X178272Y337368D01*
Y336361D01*
X178391Y335361D01*
X178627Y334382D01*
X178978Y333438D01*
X179438Y332542D01*
X180000Y331707D01*
X180658Y330944D01*
X181401Y330264D01*
X182219Y329677D01*
X183101Y329191D01*
X184034Y328813D01*
X185006Y328547D01*
X186002Y328398D01*
X187009Y328369D01*
X188012Y328458D01*
X188997Y328665D01*
X189951Y328988D01*
X190860Y329421D01*
X191712Y329959D01*
X192494Y330593D01*
X193195Y331316D01*
X193807Y332116D01*
X194319Y332984D01*
X194725Y333905D01*
X195019Y334868D01*
X195197Y335860D01*
X195257Y336865D01*
X270257Y336865D02*
X270197Y337870D01*
X270019Y338861D01*
X269725Y339825D01*
X269319Y340746D01*
X268807Y341613D01*
X268196Y342414D01*
X267494Y343137D01*
X266712Y343771D01*
X265860Y344309D01*
X264951Y344742D01*
X263997Y345064D01*
X263012Y345272D01*
X262009Y345361D01*
X261002Y345331D01*
X260006Y345183D01*
X259034Y344917D01*
X258101Y344539D01*
X257219Y344053D01*
X256401Y343465D01*
X255658Y342786D01*
X255000Y342023D01*
X254438Y341187D01*
X253978Y340292D01*
X253627Y339347D01*
X253391Y338369D01*
X253272Y337368D01*
Y336361D01*
X253391Y335361D01*
X253627Y334382D01*
X253978Y333438D01*
X254438Y332542D01*
X255000Y331707D01*
X255658Y330944D01*
X256401Y330264D01*
X257219Y329677D01*
X258101Y329191D01*
X259034Y328813D01*
X260006Y328547D01*
X261002Y328398D01*
X262009Y328369D01*
X263012Y328458D01*
X263997Y328665D01*
X264951Y328988D01*
X265860Y329421D01*
X266712Y329959D01*
X267494Y330593D01*
X268196Y331316D01*
X268807Y332116D01*
X269319Y332984D01*
X269725Y333905D01*
X270019Y334868D01*
X270197Y335860D01*
X270257Y336865D01*
X345257Y336865D02*
X345197Y337870D01*
X345019Y338861D01*
X344725Y339825D01*
X344319Y340746D01*
X343807Y341613D01*
X343196Y342414D01*
X342494Y343137D01*
X341712Y343771D01*
X340860Y344309D01*
X339951Y344742D01*
X338997Y345064D01*
X338012Y345272D01*
X337009Y345361D01*
X336002Y345331D01*
X335006Y345183D01*
X334034Y344917D01*
X333101Y344539D01*
X332219Y344053D01*
X331401Y343465D01*
X330658Y342786D01*
X330000Y342023D01*
X329438Y341187D01*
X328978Y340292D01*
X328627Y339347D01*
X328391Y338369D01*
X328272Y337368D01*
Y336361D01*
X328391Y335361D01*
X328627Y334382D01*
X328978Y333438D01*
X329438Y332542D01*
X330000Y331707D01*
X330658Y330944D01*
X331401Y330264D01*
X332219Y329677D01*
X333101Y329191D01*
X334034Y328813D01*
X335006Y328547D01*
X336002Y328398D01*
X337009Y328369D01*
X338012Y328458D01*
X338997Y328665D01*
X339951Y328988D01*
X340860Y329421D01*
X341712Y329959D01*
X342494Y330593D01*
X343196Y331316D01*
X343807Y332116D01*
X344319Y332984D01*
X344725Y333905D01*
X345019Y334868D01*
X345197Y335860D01*
X345257Y336865D01*
X45256Y336865D02*
X45196Y337870D01*
X45018Y338861D01*
X44724Y339825D01*
X44318Y340746D01*
X43806Y341613D01*
X43195Y342414D01*
X42494Y343137D01*
X41711Y343771D01*
X40860Y344309D01*
X39951Y344742D01*
X38997Y345064D01*
X38011Y345272D01*
X37008Y345361D01*
X36001Y345331D01*
X35005Y345183D01*
X34034Y344917D01*
X33101Y344539D01*
X32219Y344053D01*
X31400Y343465D01*
X30657Y342786D01*
X30000Y342023D01*
X29437Y341187D01*
X28977Y340292D01*
X28627Y339347D01*
X28390Y338369D01*
X28271Y337368D01*
Y336361D01*
X28390Y335361D01*
X28627Y334382D01*
X28977Y333438D01*
X29437Y332542D01*
X30000Y331707D01*
X30657Y330944D01*
X31400Y330264D01*
X32219Y329677D01*
X33101Y329191D01*
X34034Y328813D01*
X35005Y328547D01*
X36001Y328398D01*
X37008Y328369D01*
X38011Y328458D01*
X38997Y328665D01*
X39951Y328988D01*
X40860Y329421D01*
X41711Y329959D01*
X42493Y330593D01*
X43195Y331316D01*
X43806Y332116D01*
X44318Y332984D01*
X44724Y333905D01*
X45018Y334868D01*
X45196Y335860D01*
X45256Y336865D01*
X720257Y336865D02*
X720197Y337870D01*
X720019Y338861D01*
X719725Y339825D01*
X719319Y340746D01*
X718807Y341613D01*
X718195Y342414D01*
X717494Y343137D01*
X716712Y343771D01*
X715860Y344309D01*
X714951Y344742D01*
X713997Y345064D01*
X713012Y345272D01*
X712008Y345361D01*
X711002Y345331D01*
X710006Y345183D01*
X709034Y344917D01*
X708101Y344539D01*
X707219Y344053D01*
X706401Y343465D01*
X705658Y342786D01*
X705000Y342023D01*
X704438Y341187D01*
X703978Y340292D01*
X703627Y339347D01*
X703391Y338369D01*
X703272Y337368D01*
Y336361D01*
X703391Y335361D01*
X703627Y334382D01*
X703978Y333438D01*
X704438Y332542D01*
X705000Y331707D01*
X705658Y330944D01*
X706401Y330264D01*
X707219Y329677D01*
X708101Y329191D01*
X709034Y328813D01*
X710006Y328547D01*
X711002Y328398D01*
X712008Y328369D01*
X713012Y328458D01*
X713997Y328665D01*
X714951Y328988D01*
X715860Y329421D01*
X716712Y329959D01*
X717494Y330593D01*
X718195Y331316D01*
X718807Y332116D01*
X719319Y332984D01*
X719725Y333905D01*
X720019Y334868D01*
X720197Y335860D01*
X720257Y336865D01*
X795257Y336865D02*
X795197Y337870D01*
X795019Y338861D01*
X794725Y339825D01*
X794319Y340746D01*
X793807Y341613D01*
X793195Y342414D01*
X792494Y343137D01*
X791712Y343771D01*
X790860Y344309D01*
X789951Y344742D01*
X788997Y345064D01*
X788012Y345272D01*
X787008Y345361D01*
X786002Y345331D01*
X785006Y345183D01*
X784034Y344917D01*
X783101Y344539D01*
X782219Y344053D01*
X781401Y343465D01*
X780658Y342786D01*
X780000Y342023D01*
X779438Y341187D01*
X778978Y340292D01*
X778627Y339347D01*
X778391Y338369D01*
X778272Y337368D01*
Y336361D01*
X778391Y335361D01*
X778627Y334382D01*
X778978Y333438D01*
X779438Y332542D01*
X780000Y331707D01*
X780658Y330944D01*
X781401Y330264D01*
X782219Y329677D01*
X783101Y329191D01*
X784034Y328813D01*
X785006Y328547D01*
X786002Y328398D01*
X787008Y328369D01*
X788012Y328458D01*
X788997Y328665D01*
X789951Y328988D01*
X790860Y329421D01*
X791712Y329959D01*
X792494Y330593D01*
X793195Y331316D01*
X793807Y332116D01*
X794319Y332984D01*
X794725Y333905D01*
X795019Y334868D01*
X795197Y335860D01*
X795257Y336865D01*
X870257Y336865D02*
X870197Y337870D01*
X870019Y338861D01*
X869725Y339825D01*
X869319Y340746D01*
X868807Y341613D01*
X868196Y342414D01*
X867494Y343137D01*
X866712Y343771D01*
X865860Y344309D01*
X864951Y344742D01*
X863997Y345064D01*
X863012Y345272D01*
X862008Y345361D01*
X861002Y345331D01*
X860006Y345183D01*
X859034Y344917D01*
X858101Y344539D01*
X857219Y344053D01*
X856401Y343465D01*
X855658Y342786D01*
X855000Y342023D01*
X854438Y341187D01*
X853978Y340292D01*
X853627Y339347D01*
X853391Y338369D01*
X853272Y337368D01*
Y336361D01*
X853391Y335361D01*
X853627Y334382D01*
X853978Y333438D01*
X854438Y332542D01*
X855000Y331707D01*
X855658Y330944D01*
X856401Y330264D01*
X857219Y329677D01*
X858101Y329191D01*
X859034Y328813D01*
X860006Y328547D01*
X861002Y328398D01*
X862008Y328369D01*
X863012Y328458D01*
X863997Y328665D01*
X864951Y328988D01*
X865860Y329421D01*
X866712Y329959D01*
X867494Y330593D01*
X868196Y331316D01*
X868807Y332116D01*
X869319Y332984D01*
X869725Y333905D01*
X870019Y334868D01*
X870197Y335860D01*
X870257Y336865D01*
X645257Y336865D02*
X645197Y337870D01*
X645019Y338861D01*
X644725Y339825D01*
X644319Y340746D01*
X643807Y341613D01*
X643195Y342414D01*
X642494Y343137D01*
X641712Y343771D01*
X640860Y344309D01*
X639951Y344742D01*
X638997Y345064D01*
X638012Y345272D01*
X637008Y345361D01*
X636002Y345331D01*
X635006Y345183D01*
X634034Y344917D01*
X633101Y344539D01*
X632219Y344053D01*
X631401Y343465D01*
X630658Y342786D01*
X630000Y342023D01*
X629438Y341187D01*
X628978Y340292D01*
X628627Y339347D01*
X628391Y338369D01*
X628272Y337368D01*
Y336361D01*
X628391Y335361D01*
X628627Y334382D01*
X628978Y333438D01*
X629438Y332542D01*
X630000Y331707D01*
X630658Y330944D01*
X631401Y330264D01*
X632219Y329677D01*
X633101Y329191D01*
X634034Y328813D01*
X635006Y328547D01*
X636002Y328398D01*
X637008Y328369D01*
X638012Y328458D01*
X638997Y328665D01*
X639951Y328988D01*
X640860Y329421D01*
X641712Y329959D01*
X642494Y330593D01*
X643195Y331316D01*
X643807Y332116D01*
X644319Y332984D01*
X644725Y333905D01*
X645019Y334868D01*
X645197Y335860D01*
X645257Y336865D01*
X570257Y336865D02*
X570197Y337870D01*
X570019Y338861D01*
X569725Y339825D01*
X569319Y340746D01*
X568807Y341613D01*
X568195Y342414D01*
X567494Y343137D01*
X566712Y343771D01*
X565860Y344309D01*
X564951Y344742D01*
X563997Y345064D01*
X563012Y345272D01*
X562008Y345361D01*
X561002Y345331D01*
X560006Y345183D01*
X559034Y344917D01*
X558101Y344539D01*
X557219Y344053D01*
X556401Y343465D01*
X555658Y342786D01*
X555000Y342023D01*
X554438Y341187D01*
X553978Y340292D01*
X553627Y339347D01*
X553391Y338369D01*
X553272Y337368D01*
Y336361D01*
X553391Y335361D01*
X553627Y334382D01*
X553978Y333438D01*
X554438Y332542D01*
X555000Y331707D01*
X555658Y330944D01*
X556401Y330264D01*
X557219Y329677D01*
X558101Y329191D01*
X559034Y328813D01*
X560006Y328547D01*
X561002Y328398D01*
X562008Y328369D01*
X563012Y328458D01*
X563997Y328665D01*
X564951Y328988D01*
X565860Y329421D01*
X566712Y329959D01*
X567494Y330593D01*
X568195Y331316D01*
X568807Y332116D01*
X569319Y332984D01*
X569725Y333905D01*
X570019Y334868D01*
X570197Y335860D01*
X570257Y336865D01*
X495257Y336865D02*
X495197Y337870D01*
X495019Y338861D01*
X494725Y339825D01*
X494319Y340746D01*
X493807Y341613D01*
X493195Y342414D01*
X492494Y343137D01*
X491712Y343771D01*
X490860Y344309D01*
X489951Y344742D01*
X488997Y345064D01*
X488012Y345272D01*
X487008Y345361D01*
X486002Y345331D01*
X485006Y345183D01*
X484034Y344917D01*
X483101Y344539D01*
X482219Y344053D01*
X481401Y343465D01*
X480658Y342786D01*
X480000Y342023D01*
X479438Y341187D01*
X478978Y340292D01*
X478627Y339347D01*
X478391Y338369D01*
X478272Y337368D01*
Y336361D01*
X478391Y335361D01*
X478627Y334382D01*
X478978Y333438D01*
X479438Y332542D01*
X480000Y331707D01*
X480658Y330944D01*
X481401Y330264D01*
X482219Y329677D01*
X483101Y329191D01*
X484034Y328813D01*
X485006Y328547D01*
X486002Y328398D01*
X487008Y328369D01*
X488012Y328458D01*
X488997Y328665D01*
X489951Y328988D01*
X490860Y329421D01*
X491712Y329959D01*
X492494Y330593D01*
X493195Y331316D01*
X493807Y332116D01*
X494319Y332984D01*
X494725Y333905D01*
X495019Y334868D01*
X495197Y335860D01*
X495257Y336865D01*
X420257Y336865D02*
X420197Y337870D01*
X420019Y338861D01*
X419725Y339825D01*
X419319Y340746D01*
X418807Y341613D01*
X418195Y342414D01*
X417494Y343137D01*
X416712Y343771D01*
X415860Y344309D01*
X414951Y344742D01*
X413997Y345064D01*
X413012Y345272D01*
X412008Y345361D01*
X411002Y345331D01*
X410006Y345183D01*
X409034Y344917D01*
X408101Y344539D01*
X407219Y344053D01*
X406401Y343465D01*
X405658Y342786D01*
X405000Y342023D01*
X404438Y341187D01*
X403978Y340292D01*
X403627Y339347D01*
X403391Y338369D01*
X403272Y337368D01*
Y336361D01*
X403391Y335361D01*
X403627Y334382D01*
X403978Y333438D01*
X404438Y332542D01*
X405000Y331707D01*
X405658Y330944D01*
X406401Y330264D01*
X407219Y329677D01*
X408101Y329191D01*
X409034Y328813D01*
X410006Y328547D01*
X411002Y328398D01*
X412008Y328369D01*
X413012Y328458D01*
X413997Y328665D01*
X414951Y328988D01*
X415860Y329421D01*
X416712Y329959D01*
X417494Y330593D01*
X418195Y331316D01*
X418807Y332116D01*
X419319Y332984D01*
X419725Y333905D01*
X420019Y334868D01*
X420197Y335860D01*
X420257Y336865D01*
X1085883Y36865D02*
X1085823Y37871D01*
X1085645Y38862D01*
X1085351Y39825D01*
X1084945Y40747D01*
X1084433Y41614D01*
X1083821Y42414D01*
X1083120Y43137D01*
X1082338Y43771D01*
X1081486Y44309D01*
X1080577Y44742D01*
X1079623Y45065D01*
X1078638Y45272D01*
X1077635Y45362D01*
X1076628Y45332D01*
X1075632Y45183D01*
X1074660Y44918D01*
X1073727Y44539D01*
X1072845Y44053D01*
X1072027Y43466D01*
X1071284Y42786D01*
X1070626Y42023D01*
X1070064Y41188D01*
X1069604Y40292D01*
X1069253Y39348D01*
X1069017Y38369D01*
X1068898Y37369D01*
Y36362D01*
X1069017Y35362D01*
X1069253Y34383D01*
X1069604Y33439D01*
X1070064Y32543D01*
X1070626Y31708D01*
X1071284Y30945D01*
X1072027Y30265D01*
X1072845Y29678D01*
X1073727Y29191D01*
X1074660Y28813D01*
X1075632Y28548D01*
X1076628Y28399D01*
X1077635Y28369D01*
X1078638Y28458D01*
X1079623Y28666D01*
X1080577Y28988D01*
X1081486Y29422D01*
X1082338Y29959D01*
X1083120Y30594D01*
X1083821Y31316D01*
X1084433Y32117D01*
X1084945Y32984D01*
X1085351Y33906D01*
X1085645Y34869D01*
X1085823Y35860D01*
X1085883Y36865D01*
X992131Y36865D02*
X992071Y37871D01*
X991893Y38862D01*
X991599Y39825D01*
X991193Y40747D01*
X990681Y41614D01*
X990069Y42414D01*
X989368Y43137D01*
X988586Y43771D01*
X987734Y44309D01*
X986825Y44742D01*
X985871Y45065D01*
X984886Y45272D01*
X983883Y45362D01*
X982876Y45332D01*
X981880Y45183D01*
X980908Y44918D01*
X979975Y44539D01*
X979093Y44053D01*
X978275Y43466D01*
X977532Y42786D01*
X976874Y42023D01*
X976312Y41188D01*
X975852Y40292D01*
X975501Y39348D01*
X975265Y38369D01*
X975146Y37369D01*
Y36362D01*
X975265Y35362D01*
X975501Y34383D01*
X975852Y33439D01*
X976312Y32543D01*
X976874Y31708D01*
X977532Y30945D01*
X978275Y30265D01*
X979093Y29678D01*
X979975Y29191D01*
X980908Y28813D01*
X981880Y28548D01*
X982876Y28399D01*
X983883Y28369D01*
X984886Y28458D01*
X985871Y28666D01*
X986825Y28988D01*
X987734Y29422D01*
X988586Y29959D01*
X989368Y30594D01*
X990069Y31316D01*
X990681Y32117D01*
X991193Y32984D01*
X991599Y33906D01*
X991893Y34869D01*
X992071Y35860D01*
X992131Y36865D01*
X898387Y36865D02*
X898327Y37871D01*
X898149Y38862D01*
X897855Y39825D01*
X897449Y40747D01*
X896937Y41614D01*
X896325Y42414D01*
X895624Y43137D01*
X894842Y43771D01*
X893990Y44309D01*
X893081Y44742D01*
X892127Y45065D01*
X891142Y45272D01*
X890139Y45362D01*
X889132Y45332D01*
X888136Y45183D01*
X887164Y44918D01*
X886231Y44539D01*
X885349Y44053D01*
X884531Y43466D01*
X883788Y42786D01*
X883130Y42023D01*
X882568Y41188D01*
X882108Y40292D01*
X881757Y39348D01*
X881521Y38369D01*
X881402Y37369D01*
Y36362D01*
X881521Y35362D01*
X881757Y34383D01*
X882108Y33439D01*
X882568Y32543D01*
X883130Y31708D01*
X883788Y30945D01*
X884531Y30265D01*
X885349Y29678D01*
X886231Y29191D01*
X887164Y28813D01*
X888136Y28548D01*
X889132Y28399D01*
X890138Y28369D01*
X891142Y28458D01*
X892127Y28666D01*
X893081Y28988D01*
X893990Y29422D01*
X894842Y29959D01*
X895624Y30594D01*
X896325Y31316D01*
X896937Y32117D01*
X897449Y32984D01*
X897855Y33906D01*
X898149Y34869D01*
X898327Y35860D01*
X898387Y36865D01*
X804631Y36865D02*
X804571Y37871D01*
X804393Y38862D01*
X804099Y39825D01*
X803693Y40747D01*
X803181Y41614D01*
X802569Y42414D01*
X801868Y43137D01*
X801086Y43771D01*
X800234Y44309D01*
X799325Y44742D01*
X798371Y45065D01*
X797386Y45272D01*
X796383Y45362D01*
X795376Y45332D01*
X794380Y45183D01*
X793408Y44918D01*
X792475Y44539D01*
X791593Y44053D01*
X790775Y43466D01*
X790032Y42786D01*
X789374Y42023D01*
X788812Y41188D01*
X788352Y40292D01*
X788001Y39348D01*
X787765Y38369D01*
X787646Y37369D01*
Y36362D01*
X787765Y35362D01*
X788001Y34383D01*
X788352Y33439D01*
X788812Y32543D01*
X789374Y31708D01*
X790032Y30945D01*
X790775Y30265D01*
X791593Y29678D01*
X792475Y29191D01*
X793408Y28813D01*
X794380Y28548D01*
X795376Y28399D01*
X796383Y28369D01*
X797386Y28458D01*
X798371Y28666D01*
X799325Y28988D01*
X800234Y29422D01*
X801086Y29959D01*
X801868Y30594D01*
X802569Y31316D01*
X803181Y32117D01*
X803693Y32984D01*
X804099Y33906D01*
X804393Y34869D01*
X804571Y35860D01*
X804631Y36865D01*
X1029631Y111865D02*
X1029571Y112870D01*
X1029393Y113861D01*
X1029099Y114825D01*
X1028693Y115746D01*
X1028181Y116613D01*
X1027569Y117414D01*
X1026868Y118137D01*
X1026086Y118771D01*
X1025234Y119309D01*
X1024325Y119742D01*
X1023371Y120064D01*
X1022386Y120272D01*
X1021383Y120361D01*
X1020376Y120331D01*
X1019380Y120183D01*
X1018408Y119917D01*
X1017475Y119539D01*
X1016593Y119053D01*
X1015775Y118465D01*
X1015032Y117786D01*
X1014374Y117023D01*
X1013812Y116187D01*
X1013352Y115292D01*
X1013001Y114347D01*
X1012765Y113368D01*
X1012646Y112369D01*
Y111361D01*
X1012765Y110361D01*
X1013001Y109382D01*
X1013352Y108438D01*
X1013812Y107542D01*
X1014374Y106707D01*
X1015032Y105944D01*
X1015775Y105264D01*
X1016593Y104677D01*
X1017475Y104191D01*
X1018408Y103813D01*
X1019380Y103547D01*
X1020376Y103399D01*
X1021383Y103369D01*
X1022386Y103458D01*
X1023371Y103665D01*
X1024325Y103988D01*
X1025234Y104421D01*
X1026086Y104959D01*
X1026868Y105593D01*
X1027569Y106316D01*
X1028181Y107116D01*
X1028693Y107984D01*
X1029099Y108905D01*
X1029393Y109868D01*
X1029571Y110860D01*
X1029631Y111865D01*
X889013Y111865D02*
X888953Y112870D01*
X888775Y113861D01*
X888481Y114825D01*
X888075Y115746D01*
X887562Y116613D01*
X886951Y117414D01*
X886250Y118137D01*
X885468Y118771D01*
X884616Y119309D01*
X883707Y119742D01*
X882753Y120064D01*
X881767Y120272D01*
X880764Y120361D01*
X879758Y120331D01*
X878762Y120183D01*
X877790Y119917D01*
X876857Y119539D01*
X875975Y119053D01*
X875157Y118465D01*
X874414Y117786D01*
X873756Y117023D01*
X873194Y116187D01*
X872734Y115292D01*
X872383Y114347D01*
X872147Y113368D01*
X872027Y112369D01*
Y111361D01*
X872147Y110361D01*
X872383Y109382D01*
X872734Y108438D01*
X873194Y107542D01*
X873756Y106707D01*
X874414Y105944D01*
X875157Y105264D01*
X875975Y104677D01*
X876857Y104191D01*
X877790Y103813D01*
X878762Y103547D01*
X879758Y103399D01*
X880764Y103369D01*
X881767Y103458D01*
X882753Y103665D01*
X883707Y103988D01*
X884616Y104421D01*
X885468Y104959D01*
X886250Y105593D01*
X886951Y106316D01*
X887562Y107116D01*
X888075Y107984D01*
X888481Y108905D01*
X888775Y109868D01*
X888953Y110860D01*
X889013Y111865D01*
X814005Y111865D02*
X813945Y112870D01*
X813767Y113861D01*
X813473Y114825D01*
X813067Y115746D01*
X812555Y116613D01*
X811944Y117414D01*
X811242Y118137D01*
X810460Y118771D01*
X809608Y119309D01*
X808699Y119742D01*
X807745Y120064D01*
X806760Y120272D01*
X805757Y120361D01*
X804750Y120331D01*
X803754Y120183D01*
X802782Y119917D01*
X801849Y119539D01*
X800967Y119053D01*
X800149Y118465D01*
X799406Y117786D01*
X798748Y117023D01*
X798186Y116187D01*
X797726Y115292D01*
X797375Y114347D01*
X797139Y113368D01*
X797020Y112369D01*
Y111361D01*
X797139Y110361D01*
X797375Y109382D01*
X797726Y108438D01*
X798186Y107542D01*
X798748Y106707D01*
X799406Y105944D01*
X800149Y105264D01*
X800967Y104677D01*
X801849Y104191D01*
X802782Y103813D01*
X803754Y103547D01*
X804750Y103399D01*
X805756Y103369D01*
X806760Y103458D01*
X807745Y103665D01*
X808699Y103988D01*
X809608Y104421D01*
X810460Y104959D01*
X811242Y105593D01*
X811944Y106316D01*
X812555Y107116D01*
X813067Y107984D01*
X813473Y108905D01*
X813767Y109868D01*
X813945Y110860D01*
X814005Y111865D01*
X664013Y111865D02*
X663953Y112870D01*
X663775Y113861D01*
X663481Y114825D01*
X663075Y115746D01*
X662563Y116613D01*
X661951Y117414D01*
X661250Y118137D01*
X660468Y118771D01*
X659616Y119309D01*
X658707Y119742D01*
X657753Y120064D01*
X656768Y120272D01*
X655764Y120361D01*
X654758Y120331D01*
X653762Y120183D01*
X652790Y119917D01*
X651857Y119539D01*
X650975Y119053D01*
X650157Y118465D01*
X649414Y117786D01*
X648756Y117023D01*
X648194Y116187D01*
X647734Y115292D01*
X647383Y114347D01*
X647147Y113368D01*
X647027Y112369D01*
Y111361D01*
X647147Y110361D01*
X647383Y109382D01*
X647734Y108438D01*
X648194Y107542D01*
X648756Y106707D01*
X649414Y105944D01*
X650157Y105264D01*
X650975Y104677D01*
X651857Y104191D01*
X652790Y103813D01*
X653762Y103547D01*
X654758Y103399D01*
X655764Y103369D01*
X656768Y103458D01*
X657753Y103665D01*
X658707Y103988D01*
X659616Y104421D01*
X660468Y104959D01*
X661250Y105593D01*
X661951Y106316D01*
X662563Y107116D01*
X663075Y107984D01*
X663481Y108905D01*
X663775Y109868D01*
X663953Y110860D01*
X664013Y111865D01*
X589005Y111865D02*
X588945Y112870D01*
X588767Y113861D01*
X588473Y114825D01*
X588067Y115746D01*
X587555Y116613D01*
X586943Y117414D01*
X586242Y118137D01*
X585460Y118771D01*
X584608Y119309D01*
X583699Y119742D01*
X582745Y120064D01*
X581760Y120272D01*
X580757Y120361D01*
X579750Y120331D01*
X578754Y120183D01*
X577782Y119917D01*
X576849Y119539D01*
X575967Y119053D01*
X575149Y118465D01*
X574406Y117786D01*
X573748Y117023D01*
X573186Y116187D01*
X572726Y115292D01*
X572375Y114347D01*
X572139Y113368D01*
X572020Y112369D01*
Y111361D01*
X572139Y110361D01*
X572375Y109382D01*
X572726Y108438D01*
X573186Y107542D01*
X573748Y106707D01*
X574406Y105944D01*
X575149Y105264D01*
X575967Y104677D01*
X576849Y104191D01*
X577782Y103813D01*
X578754Y103547D01*
X579750Y103399D01*
X580757Y103369D01*
X581760Y103458D01*
X582745Y103665D01*
X583699Y103988D01*
X584608Y104421D01*
X585460Y104959D01*
X586242Y105593D01*
X586943Y106316D01*
X587555Y107116D01*
X588067Y107984D01*
X588473Y108905D01*
X588767Y109868D01*
X588945Y110860D01*
X589005Y111865D01*
X439005Y111865D02*
X438945Y112870D01*
X438767Y113861D01*
X438473Y114825D01*
X438067Y115746D01*
X437555Y116613D01*
X436943Y117414D01*
X436242Y118137D01*
X435460Y118771D01*
X434608Y119309D01*
X433699Y119742D01*
X432745Y120064D01*
X431760Y120272D01*
X430757Y120361D01*
X429750Y120331D01*
X428754Y120183D01*
X427782Y119917D01*
X426849Y119539D01*
X425967Y119053D01*
X425149Y118465D01*
X424406Y117786D01*
X423748Y117023D01*
X423186Y116187D01*
X422726Y115292D01*
X422375Y114347D01*
X422139Y113368D01*
X422020Y112369D01*
Y111361D01*
X422139Y110361D01*
X422375Y109382D01*
X422726Y108438D01*
X423186Y107542D01*
X423748Y106707D01*
X424406Y105944D01*
X425149Y105264D01*
X425967Y104677D01*
X426849Y104191D01*
X427782Y103813D01*
X428754Y103547D01*
X429750Y103399D01*
X430757Y103369D01*
X431760Y103458D01*
X432745Y103665D01*
X433699Y103988D01*
X434608Y104421D01*
X435460Y104959D01*
X436242Y105593D01*
X436943Y106316D01*
X437555Y107116D01*
X438067Y107984D01*
X438473Y108905D01*
X438767Y109868D01*
X438945Y110860D01*
X439005Y111865D01*
X364012Y111865D02*
X363952Y112870D01*
X363774Y113861D01*
X363480Y114825D01*
X363074Y115746D01*
X362562Y116613D01*
X361951Y117414D01*
X361249Y118137D01*
X360468Y118771D01*
X359616Y119309D01*
X358707Y119742D01*
X357753Y120064D01*
X356767Y120272D01*
X355764Y120361D01*
X354757Y120331D01*
X353761Y120183D01*
X352790Y119917D01*
X351857Y119539D01*
X350975Y119053D01*
X350156Y118465D01*
X349413Y117786D01*
X348756Y117023D01*
X348193Y116187D01*
X347733Y115292D01*
X347383Y114347D01*
X347146Y113368D01*
X347027Y112369D01*
Y111361D01*
X347146Y110361D01*
X347383Y109382D01*
X347733Y108438D01*
X348193Y107542D01*
X348756Y106707D01*
X349413Y105944D01*
X350156Y105264D01*
X350975Y104677D01*
X351857Y104191D01*
X352790Y103813D01*
X353761Y103547D01*
X354757Y103399D01*
X355764Y103369D01*
X356767Y103458D01*
X357753Y103665D01*
X358707Y103988D01*
X359616Y104421D01*
X360468Y104959D01*
X361249Y105593D01*
X361951Y106316D01*
X362562Y107116D01*
X363074Y107984D01*
X363480Y108905D01*
X363774Y109868D01*
X363952Y110860D01*
X364012Y111865D01*
X289012Y111865D02*
X288952Y112870D01*
X288774Y113861D01*
X288480Y114825D01*
X288074Y115746D01*
X287562Y116613D01*
X286951Y117414D01*
X286249Y118137D01*
X285468Y118771D01*
X284616Y119309D01*
X283707Y119742D01*
X282753Y120064D01*
X281767Y120272D01*
X280764Y120361D01*
X279757Y120331D01*
X278761Y120183D01*
X277790Y119917D01*
X276857Y119539D01*
X275975Y119053D01*
X275156Y118465D01*
X274413Y117786D01*
X273756Y117023D01*
X273193Y116187D01*
X272733Y115292D01*
X272383Y114347D01*
X272146Y113368D01*
X272027Y112369D01*
Y111361D01*
X272146Y110361D01*
X272383Y109382D01*
X272733Y108438D01*
X273193Y107542D01*
X273756Y106707D01*
X274413Y105944D01*
X275156Y105264D01*
X275975Y104677D01*
X276857Y104191D01*
X277790Y103813D01*
X278761Y103547D01*
X279757Y103399D01*
X280764Y103369D01*
X281767Y103458D01*
X282753Y103665D01*
X283707Y103988D01*
X284616Y104421D01*
X285468Y104959D01*
X286249Y105593D01*
X286951Y106316D01*
X287562Y107116D01*
X288074Y107984D01*
X288480Y108905D01*
X288774Y109868D01*
X288952Y110860D01*
X289012Y111865D01*
X214012Y111865D02*
X213952Y112870D01*
X213774Y113861D01*
X213480Y114825D01*
X213074Y115746D01*
X212562Y116613D01*
X211951Y117414D01*
X211249Y118137D01*
X210468Y118771D01*
X209616Y119309D01*
X208707Y119742D01*
X207753Y120064D01*
X206767Y120272D01*
X205764Y120361D01*
X204757Y120331D01*
X203761Y120183D01*
X202790Y119917D01*
X201857Y119539D01*
X200975Y119053D01*
X200156Y118465D01*
X199413Y117786D01*
X198756Y117023D01*
X198193Y116187D01*
X197733Y115292D01*
X197383Y114347D01*
X197146Y113368D01*
X197027Y112369D01*
Y111361D01*
X197146Y110361D01*
X197383Y109382D01*
X197733Y108438D01*
X198193Y107542D01*
X198756Y106707D01*
X199413Y105944D01*
X200156Y105264D01*
X200975Y104677D01*
X201857Y104191D01*
X202790Y103813D01*
X203761Y103547D01*
X204757Y103399D01*
X205764Y103369D01*
X206767Y103458D01*
X207753Y103665D01*
X208707Y103988D01*
X209616Y104421D01*
X210468Y104959D01*
X211249Y105593D01*
X211951Y106316D01*
X212562Y107116D01*
X213074Y107984D01*
X213480Y108905D01*
X213774Y109868D01*
X213952Y110860D01*
X214012Y111865D01*
X1048375Y186865D02*
X1048315Y187870D01*
X1048137Y188861D01*
X1047843Y189825D01*
X1047437Y190746D01*
X1046925Y191613D01*
X1046314Y192414D01*
X1045612Y193137D01*
X1044830Y193771D01*
X1043979Y194309D01*
X1043069Y194742D01*
X1042115Y195064D01*
X1041130Y195272D01*
X1040127Y195361D01*
X1039120Y195331D01*
X1038124Y195183D01*
X1037152Y194917D01*
X1036219Y194539D01*
X1035337Y194053D01*
X1034519Y193465D01*
X1033776Y192786D01*
X1033119Y192023D01*
X1032556Y191187D01*
X1032096Y190292D01*
X1031745Y189347D01*
X1031509Y188368D01*
X1031390Y187369D01*
Y186361D01*
X1031509Y185361D01*
X1031745Y184382D01*
X1032096Y183438D01*
X1032556Y182542D01*
X1033119Y181707D01*
X1033776Y180944D01*
X1034519Y180264D01*
X1035337Y179677D01*
X1036219Y179191D01*
X1037152Y178813D01*
X1038124Y178547D01*
X1039120Y178399D01*
X1040127Y178369D01*
X1041130Y178458D01*
X1042115Y178665D01*
X1043069Y178988D01*
X1043979Y179421D01*
X1044830Y179959D01*
X1045612Y180593D01*
X1046314Y181316D01*
X1046925Y182116D01*
X1047437Y182984D01*
X1047843Y183905D01*
X1048137Y184868D01*
X1048315Y185860D01*
X1048375Y186865D01*
X926513Y186865D02*
X926453Y187870D01*
X926275Y188861D01*
X925981Y189825D01*
X925575Y190746D01*
X925062Y191613D01*
X924451Y192414D01*
X923750Y193137D01*
X922968Y193771D01*
X922116Y194309D01*
X921207Y194742D01*
X920253Y195064D01*
X919267Y195272D01*
X918264Y195361D01*
X917258Y195331D01*
X916262Y195183D01*
X915290Y194917D01*
X914357Y194539D01*
X913475Y194053D01*
X912657Y193465D01*
X911914Y192786D01*
X911256Y192023D01*
X910694Y191187D01*
X910234Y190292D01*
X909883Y189347D01*
X909647Y188368D01*
X909527Y187369D01*
Y186361D01*
X909647Y185361D01*
X909883Y184382D01*
X910234Y183438D01*
X910694Y182542D01*
X911256Y181707D01*
X911914Y180944D01*
X912657Y180264D01*
X913475Y179677D01*
X914357Y179191D01*
X915290Y178813D01*
X916262Y178547D01*
X917258Y178399D01*
X918264Y178369D01*
X919267Y178458D01*
X920253Y178665D01*
X921207Y178988D01*
X922116Y179421D01*
X922968Y179959D01*
X923750Y180593D01*
X924451Y181316D01*
X925062Y182116D01*
X925575Y182984D01*
X925981Y183905D01*
X926275Y184868D01*
X926453Y185860D01*
X926513Y186865D01*
X851513Y186865D02*
X851453Y187870D01*
X851275Y188861D01*
X850981Y189825D01*
X850575Y190746D01*
X850062Y191613D01*
X849451Y192414D01*
X848750Y193137D01*
X847968Y193771D01*
X847116Y194309D01*
X846207Y194742D01*
X845253Y195064D01*
X844267Y195272D01*
X843264Y195361D01*
X842258Y195331D01*
X841262Y195183D01*
X840290Y194917D01*
X839357Y194539D01*
X838475Y194053D01*
X837657Y193465D01*
X836914Y192786D01*
X836256Y192023D01*
X835694Y191187D01*
X835234Y190292D01*
X834883Y189347D01*
X834647Y188368D01*
X834527Y187369D01*
Y186361D01*
X834647Y185361D01*
X834883Y184382D01*
X835234Y183438D01*
X835694Y182542D01*
X836256Y181707D01*
X836914Y180944D01*
X837657Y180264D01*
X838475Y179677D01*
X839357Y179191D01*
X840290Y178813D01*
X841262Y178547D01*
X842258Y178399D01*
X843264Y178369D01*
X844267Y178458D01*
X845253Y178665D01*
X846207Y178988D01*
X847116Y179421D01*
X847968Y179959D01*
X848750Y180593D01*
X849451Y181316D01*
X850062Y182116D01*
X850575Y182984D01*
X850981Y183905D01*
X851275Y184868D01*
X851453Y185860D01*
X851513Y186865D01*
X776505Y186865D02*
X776445Y187870D01*
X776267Y188861D01*
X775973Y189825D01*
X775567Y190746D01*
X775055Y191613D01*
X774443Y192414D01*
X773742Y193137D01*
X772960Y193771D01*
X772108Y194309D01*
X771199Y194742D01*
X770245Y195064D01*
X769260Y195272D01*
X768257Y195361D01*
X767250Y195331D01*
X766254Y195183D01*
X765282Y194917D01*
X764349Y194539D01*
X763467Y194053D01*
X762649Y193465D01*
X761906Y192786D01*
X761248Y192023D01*
X760686Y191187D01*
X760226Y190292D01*
X759875Y189347D01*
X759639Y188368D01*
X759520Y187369D01*
Y186361D01*
X759639Y185361D01*
X759875Y184382D01*
X760226Y183438D01*
X760686Y182542D01*
X761248Y181707D01*
X761906Y180944D01*
X762649Y180264D01*
X763467Y179677D01*
X764349Y179191D01*
X765282Y178813D01*
X766254Y178547D01*
X767250Y178399D01*
X768257Y178369D01*
X769260Y178458D01*
X770245Y178665D01*
X771199Y178988D01*
X772108Y179421D01*
X772960Y179959D01*
X773742Y180593D01*
X774443Y181316D01*
X775055Y182116D01*
X775567Y182984D01*
X775973Y183905D01*
X776267Y184868D01*
X776445Y185860D01*
X776505Y186865D01*
X701513Y186865D02*
X701453Y187870D01*
X701275Y188861D01*
X700981Y189825D01*
X700575Y190746D01*
X700063Y191613D01*
X699451Y192414D01*
X698750Y193137D01*
X697968Y193771D01*
X697116Y194309D01*
X696207Y194742D01*
X695253Y195064D01*
X694268Y195272D01*
X693264Y195361D01*
X692258Y195331D01*
X691262Y195183D01*
X690290Y194917D01*
X689357Y194539D01*
X688475Y194053D01*
X687657Y193465D01*
X686914Y192786D01*
X686256Y192023D01*
X685694Y191187D01*
X685234Y190292D01*
X684883Y189347D01*
X684647Y188368D01*
X684527Y187369D01*
Y186361D01*
X684647Y185361D01*
X684883Y184382D01*
X685234Y183438D01*
X685694Y182542D01*
X686256Y181707D01*
X686914Y180944D01*
X687657Y180264D01*
X688475Y179677D01*
X689357Y179191D01*
X690290Y178813D01*
X691262Y178547D01*
X692258Y178399D01*
X693264Y178369D01*
X694268Y178458D01*
X695253Y178665D01*
X696207Y178988D01*
X697116Y179421D01*
X697968Y179959D01*
X698750Y180593D01*
X699451Y181316D01*
X700063Y182116D01*
X700575Y182984D01*
X700981Y183905D01*
X701275Y184868D01*
X701453Y185860D01*
X701513Y186865D01*
X626505Y186865D02*
X626445Y187870D01*
X626267Y188861D01*
X625973Y189825D01*
X625567Y190746D01*
X625055Y191613D01*
X624443Y192414D01*
X623742Y193137D01*
X622960Y193771D01*
X622108Y194309D01*
X621199Y194742D01*
X620245Y195064D01*
X619260Y195272D01*
X618257Y195361D01*
X617250Y195331D01*
X616254Y195183D01*
X615282Y194917D01*
X614349Y194539D01*
X613467Y194053D01*
X612649Y193465D01*
X611906Y192786D01*
X611248Y192023D01*
X610686Y191187D01*
X610226Y190292D01*
X609875Y189347D01*
X609639Y188368D01*
X609520Y187369D01*
Y186361D01*
X609639Y185361D01*
X609875Y184382D01*
X610226Y183438D01*
X610686Y182542D01*
X611248Y181707D01*
X611906Y180944D01*
X612649Y180264D01*
X613467Y179677D01*
X614349Y179191D01*
X615282Y178813D01*
X616254Y178547D01*
X617250Y178399D01*
X618257Y178369D01*
X619260Y178458D01*
X620245Y178665D01*
X621199Y178988D01*
X622108Y179421D01*
X622960Y179959D01*
X623742Y180593D01*
X624443Y181316D01*
X625055Y182116D01*
X625567Y182984D01*
X625973Y183905D01*
X626267Y184868D01*
X626445Y185860D01*
X626505Y186865D01*
X551505Y186865D02*
X551445Y187870D01*
X551267Y188861D01*
X550973Y189825D01*
X550567Y190746D01*
X550055Y191613D01*
X549443Y192414D01*
X548742Y193137D01*
X547960Y193771D01*
X547108Y194309D01*
X546199Y194742D01*
X545245Y195064D01*
X544260Y195272D01*
X543257Y195361D01*
X542250Y195331D01*
X541254Y195183D01*
X540282Y194917D01*
X539349Y194539D01*
X538467Y194053D01*
X537649Y193465D01*
X536906Y192786D01*
X536248Y192023D01*
X535686Y191187D01*
X535226Y190292D01*
X534875Y189347D01*
X534639Y188368D01*
X534520Y187369D01*
Y186361D01*
X534639Y185361D01*
X534875Y184382D01*
X535226Y183438D01*
X535686Y182542D01*
X536248Y181707D01*
X536906Y180944D01*
X537649Y180264D01*
X538467Y179677D01*
X539349Y179191D01*
X540282Y178813D01*
X541254Y178547D01*
X542250Y178399D01*
X543257Y178369D01*
X544260Y178458D01*
X545245Y178665D01*
X546199Y178988D01*
X547108Y179421D01*
X547960Y179959D01*
X548742Y180593D01*
X549443Y181316D01*
X550055Y182116D01*
X550567Y182984D01*
X550973Y183905D01*
X551267Y184868D01*
X551445Y185860D01*
X551505Y186865D01*
X476501Y186865D02*
X476441Y187870D01*
X476263Y188861D01*
X475969Y189825D01*
X475563Y190746D01*
X475051Y191613D01*
X474440Y192414D01*
X473738Y193137D01*
X472956Y193771D01*
X472105Y194309D01*
X471195Y194742D01*
X470241Y195064D01*
X469256Y195272D01*
X468253Y195361D01*
X467246Y195331D01*
X466250Y195183D01*
X465278Y194917D01*
X464345Y194539D01*
X463463Y194053D01*
X462645Y193465D01*
X461902Y192786D01*
X461244Y192023D01*
X460682Y191187D01*
X460222Y190292D01*
X459871Y189347D01*
X459635Y188368D01*
X459516Y187369D01*
Y186361D01*
X459635Y185361D01*
X459871Y184382D01*
X460222Y183438D01*
X460682Y182542D01*
X461244Y181707D01*
X461902Y180944D01*
X462645Y180264D01*
X463463Y179677D01*
X464345Y179191D01*
X465278Y178813D01*
X466250Y178547D01*
X467246Y178399D01*
X468253Y178369D01*
X469256Y178458D01*
X470241Y178665D01*
X471195Y178988D01*
X472105Y179421D01*
X472956Y179959D01*
X473738Y180593D01*
X474440Y181316D01*
X475051Y182116D01*
X475563Y182984D01*
X475969Y183905D01*
X476263Y184868D01*
X476441Y185860D01*
X476501Y186865D01*
X401507Y186865D02*
X401447Y187870D01*
X401269Y188861D01*
X400975Y189825D01*
X400569Y190746D01*
X400057Y191613D01*
X399446Y192414D01*
X398744Y193137D01*
X397962Y193771D01*
X397110Y194309D01*
X396201Y194742D01*
X395247Y195064D01*
X394262Y195272D01*
X393259Y195361D01*
X392252Y195331D01*
X391256Y195183D01*
X390284Y194917D01*
X389351Y194539D01*
X388469Y194053D01*
X387651Y193465D01*
X386908Y192786D01*
X386250Y192023D01*
X385688Y191187D01*
X385228Y190292D01*
X384877Y189347D01*
X384641Y188368D01*
X384522Y187369D01*
Y186361D01*
X384641Y185361D01*
X384877Y184382D01*
X385228Y183438D01*
X385688Y182542D01*
X386250Y181707D01*
X386908Y180944D01*
X387651Y180264D01*
X388469Y179677D01*
X389351Y179191D01*
X390284Y178813D01*
X391256Y178547D01*
X392252Y178399D01*
X393259Y178369D01*
X394262Y178458D01*
X395247Y178665D01*
X396201Y178988D01*
X397110Y179421D01*
X397962Y179959D01*
X398744Y180593D01*
X399446Y181316D01*
X400057Y182116D01*
X400569Y182984D01*
X400975Y183905D01*
X401269Y184868D01*
X401447Y185860D01*
X401507Y186865D01*
X326507Y186865D02*
X326447Y187870D01*
X326269Y188861D01*
X325975Y189825D01*
X325569Y190746D01*
X325057Y191613D01*
X324446Y192414D01*
X323744Y193137D01*
X322962Y193771D01*
X322110Y194309D01*
X321201Y194742D01*
X320247Y195064D01*
X319262Y195272D01*
X318259Y195361D01*
X317252Y195331D01*
X316256Y195183D01*
X315284Y194917D01*
X314351Y194539D01*
X313469Y194053D01*
X312651Y193465D01*
X311908Y192786D01*
X311250Y192023D01*
X310688Y191187D01*
X310228Y190292D01*
X309877Y189347D01*
X309641Y188368D01*
X309522Y187369D01*
Y186361D01*
X309641Y185361D01*
X309877Y184382D01*
X310228Y183438D01*
X310688Y182542D01*
X311250Y181707D01*
X311908Y180944D01*
X312651Y180264D01*
X313469Y179677D01*
X314351Y179191D01*
X315284Y178813D01*
X316256Y178547D01*
X317252Y178399D01*
X318259Y178369D01*
X319262Y178458D01*
X320247Y178665D01*
X321201Y178988D01*
X322110Y179421D01*
X322962Y179959D01*
X323744Y180593D01*
X324446Y181316D01*
X325057Y182116D01*
X325569Y182984D01*
X325975Y183905D01*
X326269Y184868D01*
X326447Y185860D01*
X326507Y186865D01*
X251501Y186865D02*
X251442Y187870D01*
X251263Y188861D01*
X250969Y189825D01*
X250563Y190746D01*
X250051Y191613D01*
X249440Y192414D01*
X248739Y193137D01*
X247956Y193771D01*
X247105Y194309D01*
X246196Y194742D01*
X245242Y195064D01*
X244256Y195272D01*
X243253Y195361D01*
X242246Y195331D01*
X241250Y195183D01*
X240279Y194917D01*
X239346Y194539D01*
X238464Y194053D01*
X237645Y193465D01*
X236902Y192786D01*
X236245Y192023D01*
X235682Y191187D01*
X235222Y190292D01*
X234872Y189347D01*
X234635Y188368D01*
X234516Y187369D01*
Y186361D01*
X234635Y185361D01*
X234872Y184382D01*
X235222Y183438D01*
X235682Y182542D01*
X236245Y181707D01*
X236902Y180944D01*
X237645Y180264D01*
X238464Y179677D01*
X239346Y179191D01*
X240279Y178813D01*
X241250Y178547D01*
X242246Y178399D01*
X243253Y178369D01*
X244256Y178458D01*
X245242Y178665D01*
X246196Y178988D01*
X247105Y179421D01*
X247956Y179959D01*
X248739Y180593D01*
X249440Y181316D01*
X250051Y182116D01*
X250563Y182984D01*
X250969Y183905D01*
X251263Y184868D01*
X251442Y185860D01*
X251501Y186865D01*
X175824Y187400D02*
X175764Y188405D01*
X175586Y189396D01*
X175292Y190359D01*
X174886Y191281D01*
X174374Y192148D01*
X173763Y192949D01*
X173061Y193671D01*
X172279Y194306D01*
X171428Y194843D01*
X170518Y195277D01*
X169564Y195599D01*
X168579Y195807D01*
X167576Y195896D01*
X166569Y195866D01*
X165573Y195718D01*
X164602Y195452D01*
X163668Y195074D01*
X162786Y194587D01*
X161968Y194000D01*
X161225Y193321D01*
X160568Y192558D01*
X160005Y191722D01*
X159545Y190826D01*
X159195Y189882D01*
X158958Y188903D01*
X158839Y187903D01*
Y186896D01*
X158958Y185896D01*
X159195Y184917D01*
X159545Y183973D01*
X160005Y183077D01*
X160568Y182242D01*
X161225Y181479D01*
X161968Y180799D01*
X162786Y180212D01*
X163668Y179726D01*
X164602Y179348D01*
X165573Y179082D01*
X166569Y178933D01*
X167576Y178903D01*
X168579Y178993D01*
X169564Y179200D01*
X170518Y179523D01*
X171428Y179956D01*
X172279Y180494D01*
X173061Y181128D01*
X173763Y181851D01*
X174374Y182651D01*
X174886Y183518D01*
X175292Y184440D01*
X175586Y185403D01*
X175764Y186394D01*
X175824Y187400D01*
X1076505Y261865D02*
X1076445Y262870D01*
X1076267Y263861D01*
X1075973Y264825D01*
X1075567Y265746D01*
X1075055Y266613D01*
X1074444Y267414D01*
X1073742Y268137D01*
X1072960Y268771D01*
X1072108Y269309D01*
X1071199Y269742D01*
X1070245Y270064D01*
X1069260Y270272D01*
X1068257Y270361D01*
X1067250Y270331D01*
X1066254Y270183D01*
X1065282Y269917D01*
X1064349Y269539D01*
X1063467Y269053D01*
X1062649Y268465D01*
X1061906Y267786D01*
X1061248Y267023D01*
X1060686Y266187D01*
X1060226Y265292D01*
X1059875Y264347D01*
X1059639Y263369D01*
X1059520Y262368D01*
Y261361D01*
X1059639Y260361D01*
X1059875Y259382D01*
X1060226Y258438D01*
X1060686Y257542D01*
X1061248Y256707D01*
X1061906Y255944D01*
X1062649Y255264D01*
X1063467Y254677D01*
X1064349Y254191D01*
X1065282Y253813D01*
X1066254Y253547D01*
X1067250Y253398D01*
X1068257Y253369D01*
X1069260Y253458D01*
X1070245Y253665D01*
X1071199Y253988D01*
X1072108Y254421D01*
X1072960Y254959D01*
X1073742Y255593D01*
X1074444Y256316D01*
X1075055Y257116D01*
X1075567Y257984D01*
X1075973Y258905D01*
X1076267Y259868D01*
X1076445Y260860D01*
X1076505Y261865D01*
X982757Y261865D02*
X982697Y262870D01*
X982519Y263861D01*
X982225Y264825D01*
X981819Y265746D01*
X981307Y266613D01*
X980696Y267414D01*
X979994Y268137D01*
X979212Y268771D01*
X978360Y269309D01*
X977451Y269742D01*
X976497Y270064D01*
X975512Y270272D01*
X974508Y270361D01*
X973502Y270331D01*
X972506Y270183D01*
X971534Y269917D01*
X970601Y269539D01*
X969719Y269053D01*
X968901Y268465D01*
X968158Y267786D01*
X967500Y267023D01*
X966938Y266187D01*
X966478Y265292D01*
X966127Y264347D01*
X965891Y263369D01*
X965772Y262368D01*
Y261361D01*
X965891Y260361D01*
X966127Y259382D01*
X966478Y258438D01*
X966938Y257542D01*
X967500Y256707D01*
X968158Y255944D01*
X968901Y255264D01*
X969719Y254677D01*
X970601Y254191D01*
X971534Y253813D01*
X972506Y253547D01*
X973502Y253398D01*
X974508Y253369D01*
X975512Y253458D01*
X976497Y253665D01*
X977451Y253988D01*
X978360Y254421D01*
X979212Y254959D01*
X979994Y255593D01*
X980696Y256316D01*
X981307Y257116D01*
X981819Y257984D01*
X982225Y258905D01*
X982519Y259868D01*
X982697Y260860D01*
X982757Y261865D01*
X907757Y261865D02*
X907697Y262870D01*
X907519Y263861D01*
X907225Y264825D01*
X906819Y265746D01*
X906307Y266613D01*
X905696Y267414D01*
X904994Y268137D01*
X904212Y268771D01*
X903360Y269309D01*
X902451Y269742D01*
X901497Y270064D01*
X900512Y270272D01*
X899508Y270361D01*
X898502Y270331D01*
X897506Y270183D01*
X896534Y269917D01*
X895601Y269539D01*
X894719Y269053D01*
X893901Y268465D01*
X893158Y267786D01*
X892500Y267023D01*
X891938Y266187D01*
X891478Y265292D01*
X891127Y264347D01*
X890891Y263369D01*
X890772Y262368D01*
Y261361D01*
X890891Y260361D01*
X891127Y259382D01*
X891478Y258438D01*
X891938Y257542D01*
X892500Y256707D01*
X893158Y255944D01*
X893901Y255264D01*
X894719Y254677D01*
X895601Y254191D01*
X896534Y253813D01*
X897506Y253547D01*
X898502Y253398D01*
X899508Y253369D01*
X900512Y253458D01*
X901497Y253665D01*
X902451Y253988D01*
X903360Y254421D01*
X904212Y254959D01*
X904994Y255593D01*
X905696Y256316D01*
X906307Y257116D01*
X906819Y257984D01*
X907225Y258905D01*
X907519Y259868D01*
X907697Y260860D01*
X907757Y261865D01*
X832757Y261865D02*
X832697Y262870D01*
X832519Y263861D01*
X832225Y264825D01*
X831819Y265746D01*
X831307Y266613D01*
X830696Y267414D01*
X829994Y268137D01*
X829212Y268771D01*
X828360Y269309D01*
X827451Y269742D01*
X826497Y270064D01*
X825512Y270272D01*
X824508Y270361D01*
X823502Y270331D01*
X822506Y270183D01*
X821534Y269917D01*
X820601Y269539D01*
X819719Y269053D01*
X818901Y268465D01*
X818158Y267786D01*
X817500Y267023D01*
X816938Y266187D01*
X816478Y265292D01*
X816127Y264347D01*
X815891Y263369D01*
X815772Y262368D01*
Y261361D01*
X815891Y260361D01*
X816127Y259382D01*
X816478Y258438D01*
X816938Y257542D01*
X817500Y256707D01*
X818158Y255944D01*
X818901Y255264D01*
X819719Y254677D01*
X820601Y254191D01*
X821534Y253813D01*
X822506Y253547D01*
X823502Y253398D01*
X824508Y253369D01*
X825512Y253458D01*
X826497Y253665D01*
X827451Y253988D01*
X828360Y254421D01*
X829212Y254959D01*
X829994Y255593D01*
X830696Y256316D01*
X831307Y257116D01*
X831819Y257984D01*
X832225Y258905D01*
X832519Y259868D01*
X832697Y260860D01*
X832757Y261865D01*
X757757Y261865D02*
X757697Y262870D01*
X757519Y263861D01*
X757225Y264825D01*
X756819Y265746D01*
X756307Y266613D01*
X755695Y267414D01*
X754994Y268137D01*
X754212Y268771D01*
X753360Y269309D01*
X752451Y269742D01*
X751497Y270064D01*
X750512Y270272D01*
X749508Y270361D01*
X748502Y270331D01*
X747506Y270183D01*
X746534Y269917D01*
X745601Y269539D01*
X744719Y269053D01*
X743901Y268465D01*
X743158Y267786D01*
X742500Y267023D01*
X741938Y266187D01*
X741478Y265292D01*
X741127Y264347D01*
X740891Y263369D01*
X740772Y262368D01*
Y261361D01*
X740891Y260361D01*
X741127Y259382D01*
X741478Y258438D01*
X741938Y257542D01*
X742500Y256707D01*
X743158Y255944D01*
X743901Y255264D01*
X744719Y254677D01*
X745601Y254191D01*
X746534Y253813D01*
X747506Y253547D01*
X748502Y253398D01*
X749508Y253369D01*
X750512Y253458D01*
X751497Y253665D01*
X752451Y253988D01*
X753360Y254421D01*
X754212Y254959D01*
X754994Y255593D01*
X755695Y256316D01*
X756307Y257116D01*
X756819Y257984D01*
X757225Y258905D01*
X757519Y259868D01*
X757697Y260860D01*
X757757Y261865D01*
X682757Y261865D02*
X682697Y262870D01*
X682519Y263861D01*
X682225Y264825D01*
X681819Y265746D01*
X681307Y266613D01*
X680695Y267414D01*
X679994Y268137D01*
X679212Y268771D01*
X678360Y269309D01*
X677451Y269742D01*
X676497Y270064D01*
X675512Y270272D01*
X674508Y270361D01*
X673502Y270331D01*
X672506Y270183D01*
X671534Y269917D01*
X670601Y269539D01*
X669719Y269053D01*
X668901Y268465D01*
X668158Y267786D01*
X667500Y267023D01*
X666938Y266187D01*
X666478Y265292D01*
X666127Y264347D01*
X665891Y263369D01*
X665772Y262368D01*
Y261361D01*
X665891Y260361D01*
X666127Y259382D01*
X666478Y258438D01*
X666938Y257542D01*
X667500Y256707D01*
X668158Y255944D01*
X668901Y255264D01*
X669719Y254677D01*
X670601Y254191D01*
X671534Y253813D01*
X672506Y253547D01*
X673502Y253398D01*
X674508Y253369D01*
X675512Y253458D01*
X676497Y253665D01*
X677451Y253988D01*
X678360Y254421D01*
X679212Y254959D01*
X679994Y255593D01*
X680695Y256316D01*
X681307Y257116D01*
X681819Y257984D01*
X682225Y258905D01*
X682519Y259868D01*
X682697Y260860D01*
X682757Y261865D01*
X607757Y261865D02*
X607697Y262870D01*
X607519Y263861D01*
X607225Y264825D01*
X606819Y265746D01*
X606307Y266613D01*
X605695Y267414D01*
X604994Y268137D01*
X604212Y268771D01*
X603360Y269309D01*
X602451Y269742D01*
X601497Y270064D01*
X600512Y270272D01*
X599508Y270361D01*
X598502Y270331D01*
X597506Y270183D01*
X596534Y269917D01*
X595601Y269539D01*
X594719Y269053D01*
X593901Y268465D01*
X593158Y267786D01*
X592500Y267023D01*
X591938Y266187D01*
X591478Y265292D01*
X591127Y264347D01*
X590891Y263369D01*
X590772Y262368D01*
Y261361D01*
X590891Y260361D01*
X591127Y259382D01*
X591478Y258438D01*
X591938Y257542D01*
X592500Y256707D01*
X593158Y255944D01*
X593901Y255264D01*
X594719Y254677D01*
X595601Y254191D01*
X596534Y253813D01*
X597506Y253547D01*
X598502Y253398D01*
X599508Y253369D01*
X600512Y253458D01*
X601497Y253665D01*
X602451Y253988D01*
X603360Y254421D01*
X604212Y254959D01*
X604994Y255593D01*
X605695Y256316D01*
X606307Y257116D01*
X606819Y257984D01*
X607225Y258905D01*
X607519Y259868D01*
X607697Y260860D01*
X607757Y261865D01*
X532757Y261865D02*
X532697Y262870D01*
X532519Y263861D01*
X532225Y264825D01*
X531819Y265746D01*
X531307Y266613D01*
X530695Y267414D01*
X529994Y268137D01*
X529212Y268771D01*
X528360Y269309D01*
X527451Y269742D01*
X526497Y270064D01*
X525512Y270272D01*
X524508Y270361D01*
X523502Y270331D01*
X522506Y270183D01*
X521534Y269917D01*
X520601Y269539D01*
X519719Y269053D01*
X518901Y268465D01*
X518158Y267786D01*
X517500Y267023D01*
X516938Y266187D01*
X516478Y265292D01*
X516127Y264347D01*
X515891Y263369D01*
X515772Y262368D01*
Y261361D01*
X515891Y260361D01*
X516127Y259382D01*
X516478Y258438D01*
X516938Y257542D01*
X517500Y256707D01*
X518158Y255944D01*
X518901Y255264D01*
X519719Y254677D01*
X520601Y254191D01*
X521534Y253813D01*
X522506Y253547D01*
X523502Y253398D01*
X524508Y253369D01*
X525512Y253458D01*
X526497Y253665D01*
X527451Y253988D01*
X528360Y254421D01*
X529212Y254959D01*
X529994Y255593D01*
X530695Y256316D01*
X531307Y257116D01*
X531819Y257984D01*
X532225Y258905D01*
X532519Y259868D01*
X532697Y260860D01*
X532757Y261865D01*
X457757Y261865D02*
X457697Y262870D01*
X457519Y263861D01*
X457225Y264825D01*
X456819Y265746D01*
X456307Y266613D01*
X455695Y267414D01*
X454994Y268137D01*
X454212Y268771D01*
X453360Y269309D01*
X452451Y269742D01*
X451497Y270064D01*
X450512Y270272D01*
X449508Y270361D01*
X448502Y270331D01*
X447506Y270183D01*
X446534Y269917D01*
X445601Y269539D01*
X444719Y269053D01*
X443901Y268465D01*
X443158Y267786D01*
X442500Y267023D01*
X441938Y266187D01*
X441478Y265292D01*
X441127Y264347D01*
X440891Y263369D01*
X440772Y262368D01*
Y261361D01*
X440891Y260361D01*
X441127Y259382D01*
X441478Y258438D01*
X441938Y257542D01*
X442500Y256707D01*
X443158Y255944D01*
X443901Y255264D01*
X444719Y254677D01*
X445601Y254191D01*
X446534Y253813D01*
X447506Y253547D01*
X448502Y253398D01*
X449508Y253369D01*
X450512Y253458D01*
X451497Y253665D01*
X452451Y253988D01*
X453360Y254421D01*
X454212Y254959D01*
X454994Y255593D01*
X455695Y256316D01*
X456307Y257116D01*
X456819Y257984D01*
X457225Y258905D01*
X457519Y259868D01*
X457697Y260860D01*
X457757Y261865D01*
X382757Y261865D02*
X382697Y262870D01*
X382519Y263861D01*
X382225Y264825D01*
X381819Y265746D01*
X381307Y266613D01*
X380696Y267414D01*
X379994Y268137D01*
X379212Y268771D01*
X378360Y269309D01*
X377451Y269742D01*
X376497Y270064D01*
X375512Y270272D01*
X374509Y270361D01*
X373502Y270331D01*
X372506Y270183D01*
X371534Y269917D01*
X370601Y269539D01*
X369719Y269053D01*
X368901Y268465D01*
X368158Y267786D01*
X367500Y267023D01*
X366938Y266187D01*
X366478Y265292D01*
X366127Y264347D01*
X365891Y263369D01*
X365772Y262368D01*
Y261361D01*
X365891Y260361D01*
X366127Y259382D01*
X366478Y258438D01*
X366938Y257542D01*
X367500Y256707D01*
X368158Y255944D01*
X368901Y255264D01*
X369719Y254677D01*
X370601Y254191D01*
X371534Y253813D01*
X372506Y253547D01*
X373502Y253398D01*
X374509Y253369D01*
X375512Y253458D01*
X376497Y253665D01*
X377451Y253988D01*
X378360Y254421D01*
X379212Y254959D01*
X379994Y255593D01*
X380696Y256316D01*
X381307Y257116D01*
X381819Y257984D01*
X382225Y258905D01*
X382519Y259868D01*
X382697Y260860D01*
X382757Y261865D01*
X307757Y261865D02*
X307697Y262870D01*
X307519Y263861D01*
X307225Y264825D01*
X306819Y265746D01*
X306307Y266613D01*
X305696Y267414D01*
X304994Y268137D01*
X304212Y268771D01*
X303360Y269309D01*
X302451Y269742D01*
X301497Y270064D01*
X300512Y270272D01*
X299509Y270361D01*
X298502Y270331D01*
X297506Y270183D01*
X296534Y269917D01*
X295601Y269539D01*
X294719Y269053D01*
X293901Y268465D01*
X293158Y267786D01*
X292500Y267023D01*
X291938Y266187D01*
X291478Y265292D01*
X291127Y264347D01*
X290891Y263369D01*
X290772Y262368D01*
Y261361D01*
X290891Y260361D01*
X291127Y259382D01*
X291478Y258438D01*
X291938Y257542D01*
X292500Y256707D01*
X293158Y255944D01*
X293901Y255264D01*
X294719Y254677D01*
X295601Y254191D01*
X296534Y253813D01*
X297506Y253547D01*
X298502Y253398D01*
X299509Y253369D01*
X300512Y253458D01*
X301497Y253665D01*
X302451Y253988D01*
X303360Y254421D01*
X304212Y254959D01*
X304994Y255593D01*
X305696Y256316D01*
X306307Y257116D01*
X306819Y257984D01*
X307225Y258905D01*
X307519Y259868D01*
X307697Y260860D01*
X307757Y261865D01*
X232757Y261865D02*
X232697Y262870D01*
X232519Y263861D01*
X232225Y264825D01*
X231819Y265746D01*
X231307Y266613D01*
X230696Y267414D01*
X229994Y268137D01*
X229212Y268771D01*
X228360Y269309D01*
X227451Y269742D01*
X226497Y270064D01*
X225512Y270272D01*
X224509Y270361D01*
X223502Y270331D01*
X222506Y270183D01*
X221534Y269917D01*
X220601Y269539D01*
X219719Y269053D01*
X218901Y268465D01*
X218158Y267786D01*
X217500Y267023D01*
X216938Y266187D01*
X216478Y265292D01*
X216127Y264347D01*
X215891Y263369D01*
X215772Y262368D01*
Y261361D01*
X215891Y260361D01*
X216127Y259382D01*
X216478Y258438D01*
X216938Y257542D01*
X217500Y256707D01*
X218158Y255944D01*
X218901Y255264D01*
X219719Y254677D01*
X220601Y254191D01*
X221534Y253813D01*
X222506Y253547D01*
X223502Y253398D01*
X224509Y253369D01*
X225512Y253458D01*
X226497Y253665D01*
X227451Y253988D01*
X228360Y254421D01*
X229212Y254959D01*
X229994Y255593D01*
X230696Y256316D01*
X231307Y257116D01*
X231819Y257984D01*
X232225Y258905D01*
X232519Y259868D01*
X232697Y260860D01*
X232757Y261865D01*
X157756Y261865D02*
X157697Y262870D01*
X157518Y263861D01*
X157224Y264825D01*
X156818Y265746D01*
X156306Y266613D01*
X155695Y267414D01*
X154994Y268137D01*
X154212Y268771D01*
X153360Y269309D01*
X152451Y269742D01*
X151497Y270064D01*
X150511Y270272D01*
X149508Y270361D01*
X148502Y270331D01*
X147505Y270183D01*
X146534Y269917D01*
X145601Y269539D01*
X144719Y269053D01*
X143901Y268465D01*
X143157Y267786D01*
X142500Y267023D01*
X141937Y266187D01*
X141478Y265292D01*
X141127Y264347D01*
X140890Y263369D01*
X140771Y262368D01*
Y261361D01*
X140890Y260361D01*
X141127Y259382D01*
X141478Y258438D01*
X141937Y257542D01*
X142500Y256707D01*
X143157Y255944D01*
X143901Y255264D01*
X144719Y254677D01*
X145601Y254191D01*
X146534Y253813D01*
X147505Y253547D01*
X148502Y253398D01*
X149508Y253369D01*
X150511Y253458D01*
X151497Y253665D01*
X152451Y253988D01*
X153360Y254421D01*
X154212Y254959D01*
X154994Y255593D01*
X155695Y256316D01*
X156306Y257116D01*
X156818Y257984D01*
X157224Y258905D01*
X157518Y259868D01*
X157697Y260860D01*
X157756Y261865D01*
X64012Y261865D02*
X63952Y262870D01*
X63774Y263861D01*
X63480Y264825D01*
X63074Y265746D01*
X62561Y266613D01*
X61950Y267414D01*
X61249Y268137D01*
X60467Y268771D01*
X59615Y269309D01*
X58706Y269742D01*
X57752Y270064D01*
X56766Y270272D01*
X55763Y270361D01*
X54757Y270331D01*
X53761Y270183D01*
X52789Y269917D01*
X51856Y269539D01*
X50974Y269053D01*
X50156Y268465D01*
X49413Y267786D01*
X48755Y267023D01*
X48193Y266187D01*
X47733Y265292D01*
X47382Y264347D01*
X47146Y263369D01*
X47026Y262368D01*
Y261361D01*
X47146Y260361D01*
X47382Y259382D01*
X47733Y258438D01*
X48193Y257542D01*
X48755Y256707D01*
X49413Y255944D01*
X50156Y255264D01*
X50974Y254677D01*
X51856Y254191D01*
X52789Y253813D01*
X53761Y253547D01*
X54757Y253398D01*
X55763Y253369D01*
X56766Y253458D01*
X57752Y253665D01*
X58706Y253988D01*
X59615Y254421D01*
X60467Y254959D01*
X61249Y255593D01*
X61950Y256316D01*
X62561Y257116D01*
X63074Y257984D01*
X63480Y258905D01*
X63774Y259868D01*
X63952Y260860D01*
X64012Y261865D01*
X1057757Y336865D02*
X1057697Y337870D01*
X1057519Y338861D01*
X1057225Y339825D01*
X1056819Y340746D01*
X1056307Y341613D01*
X1055696Y342414D01*
X1054994Y343137D01*
X1054212Y343771D01*
X1053360Y344309D01*
X1052451Y344742D01*
X1051497Y345064D01*
X1050512Y345272D01*
X1049508Y345361D01*
X1048502Y345331D01*
X1047506Y345183D01*
X1046534Y344917D01*
X1045601Y344539D01*
X1044719Y344053D01*
X1043901Y343465D01*
X1043158Y342786D01*
X1042500Y342023D01*
X1041938Y341187D01*
X1041478Y340292D01*
X1041127Y339347D01*
X1040891Y338369D01*
X1040772Y337368D01*
Y336361D01*
X1040891Y335361D01*
X1041127Y334382D01*
X1041478Y333438D01*
X1041938Y332542D01*
X1042500Y331707D01*
X1043158Y330944D01*
X1043901Y330264D01*
X1044719Y329677D01*
X1045601Y329191D01*
X1046534Y328813D01*
X1047506Y328547D01*
X1048502Y328398D01*
X1049508Y328369D01*
X1050512Y328458D01*
X1051497Y328665D01*
X1052451Y328988D01*
X1053360Y329421D01*
X1054212Y329959D01*
X1054994Y330593D01*
X1055696Y331316D01*
X1056307Y332116D01*
X1056819Y332984D01*
X1057225Y333905D01*
X1057519Y334868D01*
X1057697Y335860D01*
X1057757Y336865D01*
X945257Y336865D02*
X945197Y337870D01*
X945019Y338861D01*
X944725Y339825D01*
X944319Y340746D01*
X943807Y341613D01*
X943196Y342414D01*
X942494Y343137D01*
X941712Y343771D01*
X940860Y344309D01*
X939951Y344742D01*
X938997Y345064D01*
X938012Y345272D01*
X937008Y345361D01*
X936002Y345331D01*
X935006Y345183D01*
X934034Y344917D01*
X933101Y344539D01*
X932219Y344053D01*
X931401Y343465D01*
X930658Y342786D01*
X930000Y342023D01*
X929438Y341187D01*
X928978Y340292D01*
X928627Y339347D01*
X928391Y338369D01*
X928272Y337368D01*
Y336361D01*
X928391Y335361D01*
X928627Y334382D01*
X928978Y333438D01*
X929438Y332542D01*
X930000Y331707D01*
X930658Y330944D01*
X931401Y330264D01*
X932219Y329677D01*
X933101Y329191D01*
X934034Y328813D01*
X935006Y328547D01*
X936002Y328398D01*
X937008Y328369D01*
X938012Y328458D01*
X938997Y328665D01*
X939951Y328988D01*
X940860Y329421D01*
X941712Y329959D01*
X942494Y330593D01*
X943196Y331316D01*
X943807Y332116D01*
X944319Y332984D01*
X944725Y333905D01*
X945019Y334868D01*
X945197Y335860D01*
X945257Y336865D01*
X523387Y36865D02*
X523327Y37871D01*
X523149Y38862D01*
X522855Y39825D01*
X522449Y40747D01*
X521937Y41614D01*
X521325Y42414D01*
X520624Y43137D01*
X519842Y43771D01*
X518990Y44309D01*
X518081Y44742D01*
X517127Y45065D01*
X516142Y45272D01*
X515138Y45362D01*
X514132Y45332D01*
X513136Y45183D01*
X512164Y44918D01*
X511231Y44539D01*
X510349Y44053D01*
X509531Y43466D01*
X508788Y42786D01*
X508130Y42023D01*
X507568Y41188D01*
X507108Y40292D01*
X506757Y39348D01*
X506521Y38369D01*
X506401Y37369D01*
Y36362D01*
X506521Y35362D01*
X506757Y34383D01*
X507108Y33439D01*
X507568Y32543D01*
X508130Y31708D01*
X508788Y30945D01*
X509531Y30265D01*
X510349Y29678D01*
X511231Y29191D01*
X512164Y28813D01*
X513136Y28548D01*
X514132Y28399D01*
X515138Y28369D01*
X516142Y28458D01*
X517127Y28666D01*
X518081Y28988D01*
X518990Y29422D01*
X519842Y29959D01*
X520624Y30594D01*
X521325Y31316D01*
X521937Y32117D01*
X522449Y32984D01*
X522855Y33906D01*
X523149Y34869D01*
X523327Y35860D01*
X523387Y36865D01*
X242131Y36865D02*
X242072Y37871D01*
X241894Y38862D01*
X241599Y39825D01*
X241194Y40747D01*
X240681Y41614D01*
X240070Y42414D01*
X239369Y43137D01*
X238587Y43771D01*
X237735Y44309D01*
X236826Y44742D01*
X235872Y45065D01*
X234887Y45272D01*
X233883Y45362D01*
X232877Y45332D01*
X231881Y45183D01*
X230909Y44918D01*
X229976Y44539D01*
X229094Y44053D01*
X228276Y43466D01*
X227533Y42786D01*
X226875Y42023D01*
X226313Y41188D01*
X225853Y40292D01*
X225502Y39348D01*
X225266Y38369D01*
X225146Y37369D01*
Y36362D01*
X225266Y35362D01*
X225502Y34383D01*
X225853Y33439D01*
X226313Y32543D01*
X226875Y31708D01*
X227533Y30945D01*
X228276Y30265D01*
X229094Y29678D01*
X229976Y29191D01*
X230909Y28813D01*
X231881Y28548D01*
X232877Y28399D01*
X233883Y28369D01*
X234886Y28458D01*
X235872Y28666D01*
X236826Y28988D01*
X237735Y29422D01*
X238587Y29959D01*
X239369Y30594D01*
X240070Y31316D01*
X240681Y32117D01*
X241194Y32984D01*
X241599Y33906D01*
X241894Y34869D01*
X242072Y35860D01*
X242131Y36865D01*
X148381Y36865D02*
X148321Y37871D01*
X148143Y38862D01*
X147849Y39825D01*
X147443Y40747D01*
X146931Y41614D01*
X146320Y42414D01*
X145618Y43137D01*
X144836Y43771D01*
X143985Y44309D01*
X143076Y44742D01*
X142122Y45065D01*
X141136Y45272D01*
X140133Y45362D01*
X139126Y45332D01*
X138130Y45183D01*
X137159Y44918D01*
X136225Y44539D01*
X135344Y44053D01*
X134525Y43466D01*
X133782Y42786D01*
X133125Y42023D01*
X132562Y41188D01*
X132102Y40292D01*
X131752Y39348D01*
X131515Y38369D01*
X131396Y37369D01*
Y36362D01*
X131515Y35362D01*
X131752Y34383D01*
X132102Y33439D01*
X132562Y32543D01*
X133125Y31708D01*
X133782Y30945D01*
X134525Y30265D01*
X135344Y29678D01*
X136225Y29191D01*
X137159Y28813D01*
X138130Y28548D01*
X139126Y28399D01*
X140133Y28369D01*
X141136Y28458D01*
X142122Y28666D01*
X143076Y28988D01*
X143985Y29422D01*
X144836Y29959D01*
X145618Y30594D01*
X146320Y31316D01*
X146931Y32117D01*
X147443Y32984D01*
X147849Y33906D01*
X148143Y34869D01*
X148321Y35860D01*
X148381Y36865D01*
X54631Y36865D02*
X54571Y37871D01*
X54393Y38862D01*
X54099Y39825D01*
X53693Y40747D01*
X53181Y41614D01*
X52570Y42414D01*
X51868Y43137D01*
X51086Y43771D01*
X50235Y44309D01*
X49326Y44742D01*
X48372Y45065D01*
X47386Y45272D01*
X46383Y45362D01*
X45376Y45332D01*
X44380Y45183D01*
X43409Y44918D01*
X42476Y44539D01*
X41594Y44053D01*
X40775Y43466D01*
X40032Y42786D01*
X39375Y42023D01*
X38812Y41188D01*
X38352Y40292D01*
X38002Y39348D01*
X37765Y38369D01*
X37646Y37369D01*
Y36362D01*
X37765Y35362D01*
X38002Y34383D01*
X38352Y33439D01*
X38812Y32543D01*
X39375Y31708D01*
X40032Y30945D01*
X40775Y30265D01*
X41594Y29678D01*
X42476Y29191D01*
X43409Y28813D01*
X44380Y28548D01*
X45376Y28399D01*
X46383Y28369D01*
X47386Y28458D01*
X48371Y28666D01*
X49326Y28988D01*
X50235Y29422D01*
X51086Y29959D01*
X51868Y30594D01*
X52570Y31316D01*
X53181Y32117D01*
X53693Y32984D01*
X54099Y33906D01*
X54393Y34869D01*
X54571Y35860D01*
X54631Y36865D01*
X92131Y111865D02*
X92071Y112870D01*
X91893Y113861D01*
X91599Y114825D01*
X91193Y115746D01*
X90681Y116613D01*
X90070Y117414D01*
X89368Y118137D01*
X88586Y118771D01*
X87735Y119309D01*
X86826Y119742D01*
X85872Y120064D01*
X84886Y120272D01*
X83883Y120361D01*
X82876Y120331D01*
X81880Y120183D01*
X80909Y119917D01*
X79975Y119539D01*
X79094Y119053D01*
X78275Y118465D01*
X77532Y117786D01*
X76875Y117023D01*
X76312Y116187D01*
X75852Y115292D01*
X75502Y114347D01*
X75265Y113368D01*
X75146Y112369D01*
Y111361D01*
X75265Y110361D01*
X75502Y109382D01*
X75852Y108438D01*
X76312Y107542D01*
X76875Y106707D01*
X77532Y105944D01*
X78275Y105264D01*
X79094Y104677D01*
X79975Y104191D01*
X80909Y103813D01*
X81880Y103547D01*
X82876Y103399D01*
X83883Y103369D01*
X84886Y103458D01*
X85871Y103665D01*
X86826Y103988D01*
X87735Y104421D01*
X88586Y104959D01*
X89368Y105593D01*
X90070Y106316D01*
X90681Y107116D01*
X91193Y107984D01*
X91599Y108905D01*
X91893Y109868D01*
X92071Y110860D01*
X92131Y111865D01*
X73387Y186865D02*
X73327Y187870D01*
X73149Y188861D01*
X72855Y189825D01*
X72449Y190746D01*
X71936Y191613D01*
X71325Y192414D01*
X70624Y193137D01*
X69842Y193771D01*
X68990Y194309D01*
X68081Y194742D01*
X67127Y195064D01*
X66141Y195272D01*
X65138Y195361D01*
X64132Y195331D01*
X63136Y195183D01*
X62164Y194917D01*
X61231Y194539D01*
X60349Y194053D01*
X59531Y193465D01*
X58788Y192786D01*
X58130Y192023D01*
X57568Y191187D01*
X57108Y190292D01*
X56757Y189347D01*
X56520Y188368D01*
X56401Y187369D01*
Y186361D01*
X56520Y185361D01*
X56757Y184382D01*
X57108Y183438D01*
X57568Y182542D01*
X58130Y181707D01*
X58788Y180944D01*
X59531Y180264D01*
X60349Y179677D01*
X61231Y179191D01*
X62164Y178813D01*
X63136Y178547D01*
X64132Y178399D01*
X65138Y178369D01*
X66141Y178458D01*
X67127Y178665D01*
X68081Y178988D01*
X68990Y179421D01*
X69842Y179959D01*
X70624Y180593D01*
X71325Y181316D01*
X71936Y182116D01*
X72449Y182984D01*
X72855Y183905D01*
X73149Y184868D01*
X73327Y185860D01*
X73387Y186865D01*
X-1Y140804D02*
X13774D01*
X-1Y-0D02*
Y140804D01*
Y160487D02*
Y392800D01*
Y160487D02*
X13780D01*
X16818Y160005D01*
X19558Y158610D01*
X21739Y156434D01*
X23133Y153689D01*
X23621Y150645D01*
X23133Y147602D02*
X23621Y150645D01*
X21739Y144862D02*
X23133Y147602D01*
X19558Y142681D02*
X21739Y144862D01*
X16818Y141281D02*
X19558Y142681D01*
X13774Y140804D02*
X16818Y141281D01*
X1123519Y160487D02*
Y392800D01*
X1109744Y140804D02*
X1123519D01*
X1106700Y141281D02*
X1109744Y140804D01*
X1103960Y142681D02*
X1106700Y141281D01*
X1101779Y144862D02*
X1103960Y142681D01*
X1100385Y147602D02*
X1101779Y144862D01*
X1099897Y150645D02*
X1100385Y147602D01*
X1099897Y150645D02*
X1100385Y153689D01*
X1101779Y156434D01*
X1103960Y158610D01*
X1106700Y160005D01*
X1109738Y160487D01*
X1123519D01*
X-1Y392800D02*
X1123519D01*
X-1Y-0D02*
X1123519D01*
Y140804D01*
X4953Y380202D02*
X4953Y374296D01*
X10071D01*
X33693D02*
X38811D01*
Y380202D01*
Y392406D02*
Y397524D01*
X4953D02*
X38811D01*
X4953Y392013D02*
Y397524D01*
X8496Y392800D02*
X34874Y392800D01*
X18641Y367052D02*
X22184D01*
X18641Y354847D02*
X22184D01*
Y367052D01*
X18641Y354847D02*
Y367052D01*
D11*
X431240Y61921D02*
X430453D01*
X431240D01*
X942815Y378740D02*
Y380315D01*
X945571Y378740D02*
Y380315D01*
X870866Y378740D02*
Y380315D01*
X868110Y378740D02*
Y380315D01*
X354842Y23902D02*
Y60123D01*
X318621Y23902D02*
Y60123D01*
X354842D01*
X318621Y23902D02*
X354842D01*
D12*
X26220Y367839D02*
X25481Y368266D01*
Y367413D01*
X26220Y367839D01*
X359763Y59532D02*
X359025Y59958D01*
Y59106D01*
X359763Y59532D01*
D15*
X368306Y37681D02*
X368367Y36703D01*
X368555Y35742D01*
X368867Y34813D01*
X369297Y33932D01*
X369839Y33115D01*
X370482Y32376D01*
X371216Y31727D01*
X372029Y31179D01*
X372906Y30742D01*
X373832Y30423D01*
X374792Y30227D01*
X375770Y30158D01*
X376748Y30218D01*
X377710Y30404D01*
X378640Y30714D01*
X379521Y31143D01*
X380339Y31683D01*
X381079Y32325D01*
X381730Y33058D01*
X382279Y33869D01*
X382718Y34745D01*
X383038Y35671D01*
X383236Y36631D01*
X383306Y37609D01*
Y58909D02*
X383245Y59887D01*
X383057Y60848D01*
X382745Y61778D01*
X382315Y62658D01*
X381774Y63475D01*
X381131Y64214D01*
X380396Y64863D01*
X379584Y65411D01*
X378707Y65848D01*
X377780Y66167D01*
X376820Y66363D01*
X375843Y66432D01*
X374865Y66373D01*
X373902Y66186D01*
X372973Y65876D01*
X372092Y65447D01*
X371274Y64907D01*
X370533Y64266D01*
X369883Y63533D01*
X369334Y62721D01*
X368895Y61845D01*
X368574Y60919D01*
X368377Y59959D01*
X368306Y58982D01*
X368306Y37811D02*
Y58812D01*
X383306Y37911D02*
Y58912D01*
X372106Y50509D02*
X379606D01*
X375706Y50509D02*
Y53509D01*
X372206Y46409D02*
X379606D01*
X375706Y43309D02*
Y46409D01*
D16*
X426634Y36083D02*
X432933D01*
X447224D02*
X453090D01*
X452106Y50728D02*
X453090D01*
X426634D02*
X427658D01*
X453090Y36083D02*
Y50728D01*
X426634Y36083D02*
Y50728D01*
X686916Y65854D02*
X683965D01*
Y67330D01*
X684456Y67822D01*
X686424D01*
X686916Y67330D01*
Y65854D01*
Y68806D02*
Y69790D01*
Y69298D01*
X683965D01*
Y68806D01*
Y69790D01*
X686916Y72742D02*
Y71758D01*
X686424Y71266D01*
X684456D01*
X683965Y71758D01*
Y72742D01*
X684456Y73234D01*
X686424D01*
X686916Y72742D01*
X706208Y67428D02*
X706700Y66936D01*
Y65953D01*
X706208Y65461D01*
X704240D01*
X703748Y65953D01*
Y66936D01*
X704240Y67428D01*
X705224D01*
Y66445D01*
X703748Y68412D02*
X706700D01*
X703748Y70380D01*
X706700D01*
Y71364D02*
X703748D01*
Y72840D01*
X704240Y73332D01*
X706208D01*
X706700Y72840D01*
Y71364D01*
X695676Y67822D02*
X696168Y67330D01*
Y66346D01*
X695676Y65854D01*
X693709D01*
X693217Y66346D01*
Y67330D01*
X693709Y67822D01*
X696168Y68806D02*
X693217D01*
Y70774D01*
X696168Y71758D02*
X693217D01*
X694201D01*
X696168Y73726D01*
X694692Y72250D01*
X693217Y73726D01*
X676385Y65854D02*
X676877Y66346D01*
Y67330D01*
X676385Y67822D01*
X675893D01*
X675401Y67330D01*
Y66838D01*
Y67330D01*
X674909Y67822D01*
X674417D01*
X673925Y67330D01*
Y66346D01*
X674417Y65854D01*
X676877Y68806D02*
X674909D01*
X673925Y69790D01*
X674909Y70774D01*
X676877D01*
X676385Y71758D02*
X676877Y72250D01*
Y73234D01*
X676385Y73726D01*
X675893D01*
X675401Y73234D01*
Y72742D01*
Y73234D01*
X674909Y73726D01*
X674417D01*
X673925Y73234D01*
Y72250D01*
X674417Y71758D01*
X666043Y57086D02*
X667027D01*
X666535D01*
Y54626D01*
X667027Y54134D01*
X667519D01*
X668011Y54626D01*
X665059Y54134D02*
X664075D01*
X664567D01*
Y57086D01*
X665059Y56594D01*
X45472Y374705D02*
Y377657D01*
X43996D01*
X43504Y377165D01*
Y376181D01*
X43996Y375689D01*
X45472D01*
X42520Y374705D02*
X41536D01*
X42028D01*
Y377657D01*
X42520Y377165D01*
X390059Y46556D02*
X389567D01*
X388583Y47540D01*
X389567Y48524D01*
X390059D01*
X388583Y47540D02*
X387107D01*
Y49508D02*
Y50491D01*
Y49999D01*
X390059D01*
X389567Y49508D01*
X358956Y65255D02*
Y62796D01*
X358464Y62304D01*
X357480D01*
X356988Y62796D01*
Y65255D01*
X356004Y64763D02*
X355512Y65255D01*
X354528D01*
X354036Y64763D01*
Y64271D01*
X354528Y63779D01*
X355020D01*
X354528D01*
X354036Y63288D01*
Y62796D01*
X354528Y62304D01*
X355512D01*
X356004Y62796D01*
X424212Y58464D02*
Y56004D01*
X423720Y55512D01*
X422736D01*
X422244Y56004D01*
Y58464D01*
X421260Y55512D02*
X420276D01*
X420768D01*
Y58464D01*
X421260Y57972D01*
X938012Y377225D02*
X940964D01*
Y378701D01*
X940472Y379193D01*
X939488D01*
X938996Y378701D01*
Y377225D01*
Y378209D02*
X938012Y379193D01*
Y382145D02*
Y380177D01*
X939980Y382145D01*
X940472D01*
X940964Y381653D01*
Y380669D01*
X940472Y380177D01*
X863209Y377875D02*
X866161D01*
Y379351D01*
X865669Y379842D01*
X864685D01*
X864193Y379351D01*
Y377875D01*
Y378859D02*
X863209Y379842D01*
Y380826D02*
Y381810D01*
Y381318D01*
X866161D01*
X865669Y380826D01*
X34940Y366633D02*
Y364174D01*
X34448Y363682D01*
X33464D01*
X32972Y364174D01*
Y366633D01*
X30020Y363682D02*
X31988D01*
X30020Y365649D01*
Y366141D01*
X30512Y366633D01*
X31496D01*
X31988Y366141D01*
D67*
X710256Y62402D02*
X709933Y63181D01*
X709154Y63504D01*
Y53425D02*
X709933Y53748D01*
X710256Y54528D01*
X671201Y63504D02*
X670500Y63148D01*
X670256Y62402D01*
Y54527D02*
X670500Y53781D01*
X671201Y53425D01*
X385049Y63206D02*
X384761Y64181D01*
X384371Y65119D01*
X383883Y66010D01*
X383303Y66844D01*
X382637Y67611D01*
X381893Y68303D01*
X381079Y68911D01*
X380205Y69429D01*
X379281Y69850D01*
X378317Y70171D01*
X377324Y70387D01*
X376314Y70495D01*
X375298D01*
X374288Y70387D01*
X373295Y70171D01*
X372331Y69850D01*
X371407Y69429D01*
X370533Y68911D01*
X369720Y68303D01*
X368975Y67611D01*
X368309Y66844D01*
X367729Y66010D01*
X367241Y65119D01*
X366851Y64181D01*
X366564Y63206D01*
Y33811D02*
X366851Y32837D01*
X367241Y31898D01*
X367729Y31008D01*
X368309Y30174D01*
X368975Y29406D01*
X369720Y28715D01*
X370533Y28106D01*
X371407Y27589D01*
X372331Y27167D01*
X373295Y26847D01*
X374288Y26631D01*
X375298Y26522D01*
X376314D01*
X377324Y26631D01*
X378317Y26847D01*
X379281Y27167D01*
X380205Y27589D01*
X381079Y28106D01*
X381893Y28715D01*
X382637Y29406D01*
X383303Y30174D01*
X383883Y31008D01*
X384371Y31899D01*
X384761Y32837D01*
X385049Y33811D01*
X680256Y54465D02*
Y62504D01*
X700256Y54465D02*
X701256Y53465D01*
X700256Y62504D02*
X701256Y63504D01*
Y53425D02*
X709256D01*
X701256Y63504D02*
X709256D01*
X710256Y54528D02*
Y62402D01*
X670256Y54528D02*
Y62402D01*
X679256Y53465D02*
X680256Y54465D01*
X681256Y53465D01*
X679256Y63465D02*
Y63504D01*
Y63465D02*
X680256Y62465D01*
Y62504D01*
X681256Y63504D01*
X671201Y53425D02*
X679256D01*
X689256Y53465D02*
X690256Y54465D01*
X691256Y53465D01*
X681256Y53425D02*
X689256D01*
Y53465D01*
X671201Y63504D02*
X679216D01*
X679256Y63465D01*
X681256Y63504D02*
X689256D01*
Y63465D02*
Y63504D01*
Y63465D02*
X690256Y62465D01*
X691256Y63465D01*
X691201Y53425D02*
X699256D01*
X699256Y53465D02*
X700256Y54465D01*
X709256Y53425D02*
Y53465D01*
X699217Y63504D02*
X699256Y63465D01*
X691201Y63504D02*
X699217D01*
X700256Y62465D02*
Y62504D01*
X699256Y63465D02*
X700256Y62465D01*
X699256Y63465D02*
X699256Y63504D01*
X709256Y63465D02*
Y63504D01*
X366554Y33811D02*
Y63206D01*
X385058Y33811D02*
Y63206D01*
D75*
X352086Y56186D02*
X351641Y57109D01*
X350642Y57337D01*
X349840Y56698D01*
Y55673D01*
X350642Y55034D01*
X351641Y55262D01*
X352086Y56186D01*
M02*
