G04*
G04 #@! TF.GenerationSoftware,Altium Limited,Altium Designer,21.2.1 (34)*
G04*
G04 Layer_Color=8421504*
%FSLAX25Y25*%
%MOIN*%
G70*
G04*
G04 #@! TF.SameCoordinates,E791EE2E-FBA0-4324-A9C2-BCC3054153F0*
G04*
G04*
G04 #@! TF.FilePolarity,Positive*
G04*
G01*
G75*
%ADD18R,0.03543X0.03150*%
%ADD19R,0.03150X0.03543*%
%ADD20R,0.04724X0.09252*%
%ADD21R,0.02756X0.03543*%
%ADD22R,0.03543X0.02756*%
D18*
X347539Y24902D02*
D03*
Y19390D02*
D03*
X321949D02*
D03*
Y24902D02*
D03*
X382696Y52643D02*
D03*
Y58154D02*
D03*
X351575Y64862D02*
D03*
Y59350D02*
D03*
X327362Y25098D02*
D03*
Y19587D02*
D03*
X382696Y44375D02*
D03*
Y38863D02*
D03*
D19*
X448917Y31890D02*
D03*
X443405D02*
D03*
X354724Y33169D02*
D03*
X360236D02*
D03*
X314469Y56693D02*
D03*
X319980D02*
D03*
X449114Y73032D02*
D03*
X443602D02*
D03*
D20*
X437315Y44094D02*
D03*
X423315D02*
D03*
X457665Y68898D02*
D03*
X471665D02*
D03*
D21*
X360433Y44980D02*
D03*
X354528D02*
D03*
D22*
X359449Y59153D02*
D03*
Y65059D02*
D03*
X343701Y59153D02*
D03*
Y65059D02*
D03*
M02*
