M48
;Layer_Color=9474304
;FILE_FORMAT=2:4
INCH,TZ
;TYPE=PLATED
T1F00S00C0.0098
T3F00S00C0.0256
T5F00S00C0.0287
T6F00S00C0.0315
T7F00S00C0.0320
T8F00S00C0.0394
T9F00S00C0.1378
T10F00S00C0.1535
T11F00S00C0.1969
%
T01
X15827Y9567
X17087
X25354
X26299
X30955Y5679
X33071Y5268
X35157Y5650
X36417Y5906
X36457Y4488
Y3316
X35443Y4114
X35059Y3750
X34488Y2768
X34721Y1105
X32589Y1457
X32175Y1122
X32195Y2776
X34478Y7087
X35583Y6937
X35965Y6949
X43986Y6098
X43652Y5659
X44320Y5656
X43984Y5157
X44291Y4400
X45276Y5551
Y5846
X45591
Y5551
X45620Y2293
X45630Y1939
X48425Y9567
X49685
X58809Y8976
X63258Y9124
X63261Y10111
X65728Y9055
X62475Y6964
X66024Y14724
X70689Y14646
X70679Y13829
X78465Y9567
X79528
X86063
X87008
X92480Y9154
X92490Y7382
X95669Y9567
X101890
X102205Y17205
X101378
X96264Y24484
X95594
X88783
X88031Y24488
X81264Y24484
X80594
X82437Y17201
X83185
X89917
X90665
X75622Y17205
X74961
X68276
X67527
X66258Y24484
X65589
X73075
X73744
X58783
X58114
X51378Y24488
X50472
X48740Y17205
X52445Y17207
X53307Y17205
X59842
X60709
X38228
X37371Y17206
X36264Y24484
X35594
X43114
X43783
X28779Y24488
X28110
X21260
X20590
X22441Y17205
X23110
X29921
X30657Y17208
X15630Y17205
X14803
X13898Y24488
X12953
X10079Y32165
X9252
X3105Y36089
X3100Y36939
X906Y36535
Y36240
X610Y36250
Y36535
X16732Y32165
X17598
X24244
X25110
X31728Y32161
X32594
X39209
X40075
X46728
X47594
X54209
X55075
X61728
X62594
X69240
X70106
X76728
X77594
X84248
X85114
X91728
X92594
X102904Y32165
X104016Y32156
T03
X3862Y14538
X39969Y6094
X35862Y1122
T05
X7913Y2201
Y5201
X11653Y9563
Y12563
X23858
Y9563
X26693Y5201
Y2201
X17283
Y5201
X31339Y9563
Y12563
X38858
Y9563
X46339
Y12563
X45350Y15039
X48350
X53898Y12563
Y9563
X54803Y5201
Y2201
X61339Y9563
Y12563
X68858
Y9563
X76339
Y12563
X83858
Y9563
X82913Y5201
Y2201
X92283
Y5201
X91378Y9563
Y12563
X105433
Y9563
X101653Y5201
Y2201
X111063
Y5201
X110118Y24484
Y27484
X100748
Y24484
X95118Y20201
Y17201
X107283
Y20201
X93228Y24484
Y27484
X85748
Y24484
X87598Y20201
Y17201
X80118
Y20201
X78228Y24484
Y27484
X70709
Y24484
X72559Y20201
Y17201
X65118
Y20201
X63223Y24484
Y27484
X55748
Y24484
X57598Y20201
Y17201
X48228Y24484
Y27484
X40748
Y24484
X42598Y20201
Y17201
X35118
Y20201
X33228Y24484
Y27484
X25748
Y24484
X27598Y20201
Y17201
X20039
Y20201
X18228Y24484
Y27484
X8858Y27488
Y24488
X9803Y20201
Y17201
X6968Y32161
Y35161
X14488
Y32161
X22008
Y35161
X29488
Y32161
X36968
Y35161
X44488
Y32161
X51968
Y35161
X59488
Y32161
X67008
Y35161
X74488
Y32161
X82008
Y35161
X89488
Y32161
X96968
Y35161
X108228
Y32161
T06
X37581Y3890
Y5811
T07
X87611Y37943
X88611
X95111
X96111
T08
X3113Y4687
X5613Y5687
X6863Y12186
X9363Y13186
X12488Y4687
X14988Y5687
X21863Y4687
X24363Y5687
X26551Y12186
X29051Y13186
X21551
X19051Y12186
X34051
X36551Y13186
X41550Y12186
X44050Y13186
X49051Y12186
X51551Y13186
X56550Y12186
X59050Y13186
X52489Y5687
X49989Y4687
X67526Y5846
X68526
X69526
X70526
X71551Y12186
X74051Y13186
X66551
X64051Y12186
X79050
X81550Y13186
X86551Y12186
X89051Y13186
X89989Y5687
X87489Y4687
X80613Y5687
X78113Y4687
X96863
X99363Y5687
X100613Y12186
X103113Y13186
X106238Y4687
X108738Y5687
X104987Y20686
X102487Y19686
X105300Y27186
X107800Y28186
X98426
X95926Y27186
X90926Y28186
X88426Y27186
X83426Y28186
X80926Y27186
X82801Y19686
X85301Y20686
X90301Y19686
X92801Y20686
X77800
X75300Y19686
X70301Y20686
X67801Y19686
X62800Y20686
X65926Y27186
X68426Y28186
X73426Y27186
X75926Y28186
X60926
X58426Y27186
X53426Y28186
X50926Y27186
X52800Y19686
X55300Y20686
X60300Y19686
X47800Y20686
X45300Y19686
X40301Y20686
X37801Y19686
X32801Y20686
X35926Y27186
X38426Y28186
X43426Y27186
X45926Y28186
X30926
X28426Y27186
X23426Y28186
X20926Y27186
X15926Y28186
X17732Y20740
X22800Y19686
X25300Y20686
X30301Y19686
X15232Y19740
X7489Y20686
X4989Y19686
X4051Y27186
X6551Y28186
X13426Y27186
X12176Y35686
X9676Y34686
X4676Y35686
X2176Y34686
X17176
X19676Y35686
X24676Y34686
X27176Y35686
X32176Y34686
X34676Y35686
X39676Y34686
X42176Y35686
X47176Y34686
X49676Y35686
X54676Y34686
X57176Y35686
X62176Y34686
X64676Y35686
X69676Y34686
X72176Y35686
X77176Y34686
X79676Y35686
X84676Y34686
X87176Y35686
X92176Y34686
X94676Y35686
X103426Y34686
X105926Y35686
T09
X102441Y26339
X50551Y18701
T10
X4613Y3687
X13988
X8363Y11186
X20551
X28051
X23363Y3687
X35551Y11186
X43050
X50551
X58050
X51489Y3687
X65551Y11186
X73051
X80550
X88051
X88989Y3687
X79613
X98363
X107738
X102113Y11186
X103987Y18686
X106800Y26186
X97426
X89926
X82426
X84301Y18686
X91801
X76800
X69301
X67426Y26186
X74926
X59926
X52426
X54300Y18686
X61800
X46800
X39301
X31801
X37426Y26186
X44926
X29926
X22426
X24300Y18686
X16732Y18740
X14926Y26186
X5551
X6489Y18686
X3676Y33686
X11176
X18676
X26176
X33676
X41176
X48676
X56176
X63676
X71176
X78676
X86176
X93676
X104926
T11
X1331Y15063
X110988Y15071
M30
