G04*
G04 #@! TF.GenerationSoftware,Altium Limited,Altium Designer,21.2.1 (34)*
G04*
G04 Layer_Color=128*
%FSLAX25Y25*%
%MOIN*%
G70*
G04*
G04 #@! TF.SameCoordinates,E791EE2E-FBA0-4324-A9C2-BCC3054153F0*
G04*
G04*
G04 #@! TF.FilePolarity,Positive*
G04*
G01*
G75*
%ADD22R,0.03543X0.02756*%
%ADD60R,0.01575X0.05906*%
%ADD61R,0.05906X0.07480*%
%ADD62R,0.03937X0.01968*%
G04:AMPARAMS|DCode=63|XSize=127.56mil|YSize=51.58mil|CornerRadius=3.87mil|HoleSize=0mil|Usage=FLASHONLY|Rotation=0.000|XOffset=0mil|YOffset=0mil|HoleType=Round|Shape=RoundedRectangle|*
%AMROUNDEDRECTD63*
21,1,0.12756,0.04384,0,0,0.0*
21,1,0.11982,0.05158,0,0,0.0*
1,1,0.00774,0.05991,-0.02192*
1,1,0.00774,-0.05991,-0.02192*
1,1,0.00774,-0.05991,0.02192*
1,1,0.00774,0.05991,0.02192*
%
%ADD63ROUNDEDRECTD63*%
G04:AMPARAMS|DCode=64|XSize=36.61mil|YSize=51.58mil|CornerRadius=2.75mil|HoleSize=0mil|Usage=FLASHONLY|Rotation=0.000|XOffset=0mil|YOffset=0mil|HoleType=Round|Shape=RoundedRectangle|*
%AMROUNDEDRECTD64*
21,1,0.03661,0.04608,0,0,0.0*
21,1,0.03112,0.05158,0,0,0.0*
1,1,0.00549,0.01556,-0.02304*
1,1,0.00549,-0.01556,-0.02304*
1,1,0.00549,-0.01556,0.02304*
1,1,0.00549,0.01556,0.02304*
%
%ADD64ROUNDEDRECTD64*%
%ADD65O,0.06299X0.01000*%
%ADD66O,0.01000X0.06299*%
D22*
X944193Y382480D02*
D03*
Y376575D02*
D03*
X869488D02*
D03*
Y382480D02*
D03*
D60*
X21882Y375083D02*
D03*
X24441D02*
D03*
X19323D02*
D03*
X27000D02*
D03*
X16764D02*
D03*
D61*
X17945Y386894D02*
D03*
X25819Y386894D02*
D03*
D62*
X25727Y364690D02*
D03*
X15098Y364690D02*
D03*
X25727Y360950D02*
D03*
X25727Y357209D02*
D03*
X15098D02*
D03*
Y360950D02*
D03*
D63*
X439862Y30236D02*
D03*
D64*
X448878Y56575D02*
D03*
X439862Y56575D02*
D03*
X430847Y56575D02*
D03*
D65*
X359271Y56776D02*
D03*
Y54808D02*
D03*
Y52839D02*
D03*
Y50871D02*
D03*
X359271Y48902D02*
D03*
Y46934D02*
D03*
X359271Y44965D02*
D03*
X359271Y42997D02*
D03*
Y41028D02*
D03*
Y39060D02*
D03*
X359271Y37091D02*
D03*
Y35123D02*
D03*
X359271Y33154D02*
D03*
X359271Y31186D02*
D03*
Y29217D02*
D03*
Y27249D02*
D03*
X314192D02*
D03*
Y29217D02*
D03*
X314192Y31186D02*
D03*
Y33154D02*
D03*
Y35123D02*
D03*
Y37091D02*
D03*
Y39060D02*
D03*
Y41028D02*
D03*
Y42997D02*
D03*
Y44965D02*
D03*
X314192Y46934D02*
D03*
Y48902D02*
D03*
X314192Y50871D02*
D03*
X314192Y52839D02*
D03*
X314192Y54808D02*
D03*
Y56776D02*
D03*
D66*
X351495Y19473D02*
D03*
X349527D02*
D03*
X347558Y19473D02*
D03*
X345590D02*
D03*
X343621Y19473D02*
D03*
X341653D02*
D03*
X339684D02*
D03*
X337716D02*
D03*
X335747D02*
D03*
X333779Y19473D02*
D03*
X331810Y19473D02*
D03*
X329842D02*
D03*
X327873D02*
D03*
X325905D02*
D03*
X323936Y19473D02*
D03*
X321968D02*
D03*
Y64552D02*
D03*
X323936D02*
D03*
X325905D02*
D03*
X327873D02*
D03*
X329842Y64552D02*
D03*
X331810D02*
D03*
X333779Y64552D02*
D03*
X335747D02*
D03*
X337716D02*
D03*
X339684D02*
D03*
X341653Y64552D02*
D03*
X343621D02*
D03*
X345590Y64552D02*
D03*
X347558D02*
D03*
X349527D02*
D03*
X351495D02*
D03*
M02*
