G04*
G04 #@! TF.GenerationSoftware,Altium Limited,Altium Designer,21.2.1 (34)*
G04*
G04 Layer_Color=8388736*
%FSLAX25Y25*%
%MOIN*%
G70*
G04*
G04 #@! TF.SameCoordinates,E791EE2E-FBA0-4324-A9C2-BCC3054153F0*
G04*
G04*
G04 #@! TF.FilePolarity,Positive*
G04*
G01*
G75*
%ADD16C,0.00500*%
%ADD76C,0.00197*%
D16*
X705732Y59465D02*
Y56513D01*
X704256Y57989D01*
X706224D01*
X674256Y59465D02*
X675240D01*
X674748D01*
Y56513D01*
X674256Y57005D01*
D76*
X688406Y58465D02*
X688251Y59438D01*
X687804Y60316D01*
X687107Y61013D01*
X686229Y61460D01*
X685256Y61614D01*
X684283Y61460D01*
X683405Y61013D01*
X682708Y60316D01*
X682261Y59438D01*
X682106Y58465D01*
X682261Y57491D01*
X682708Y56613D01*
X683405Y55917D01*
X684283Y55469D01*
X685256Y55315D01*
X686229Y55469D01*
X687107Y55917D01*
X687804Y56613D01*
X688251Y57491D01*
X688406Y58465D01*
X708405D02*
X708251Y59438D01*
X707804Y60316D01*
X707107Y61013D01*
X706229Y61460D01*
X705256Y61614D01*
X704283Y61460D01*
X703405Y61013D01*
X702708Y60316D01*
X702260Y59438D01*
X702106Y58465D01*
X702260Y57491D01*
X702708Y56613D01*
X703405Y55917D01*
X704283Y55469D01*
X705256Y55315D01*
X706229Y55469D01*
X707107Y55917D01*
X707804Y56613D01*
X708251Y57491D01*
X708405Y58465D01*
X698406D02*
X698251Y59438D01*
X697804Y60316D01*
X697107Y61013D01*
X696229Y61460D01*
X695256Y61614D01*
X694283Y61460D01*
X693405Y61013D01*
X692708Y60316D01*
X692261Y59438D01*
X692106Y58465D01*
X692261Y57491D01*
X692708Y56613D01*
X693405Y55917D01*
X694283Y55469D01*
X695256Y55315D01*
X696229Y55469D01*
X697107Y55917D01*
X697804Y56613D01*
X698251Y57491D01*
X698406Y58465D01*
X678406D02*
X678251Y59438D01*
X677804Y60316D01*
X677107Y61013D01*
X676229Y61460D01*
X675256Y61614D01*
X674283Y61460D01*
X673405Y61013D01*
X672708Y60316D01*
X672261Y59438D01*
X672106Y58465D01*
X672261Y57491D01*
X672708Y56613D01*
X673405Y55917D01*
X674283Y55469D01*
X675256Y55315D01*
X676229Y55469D01*
X677107Y55917D01*
X677804Y56613D01*
X678251Y57491D01*
X678406Y58465D01*
X678251Y59438D01*
X677804Y60316D01*
X677107Y61013D01*
X676229Y61460D01*
X675256Y61614D01*
X674283Y61460D01*
X673405Y61013D01*
X672708Y60316D01*
X672261Y59438D01*
X672106Y58465D01*
X672261Y57491D01*
X672708Y56613D01*
X673405Y55917D01*
X674283Y55469D01*
X675256Y55315D01*
X676229Y55469D01*
X677107Y55917D01*
X677804Y56613D01*
X678251Y57491D01*
X678406Y58465D01*
X709154Y53425D02*
X709933Y53748D01*
X710256Y54528D01*
X710256Y62402D02*
X709933Y63181D01*
X709154Y63504D01*
X670256Y54527D02*
X670500Y53781D01*
X671201Y53425D01*
X671201Y63504D02*
X670500Y63148D01*
X670256Y62402D01*
X378365Y58115D02*
X378170Y59094D01*
X377616Y59925D01*
X376785Y60479D01*
X375806Y60674D01*
X374827Y60479D01*
X373997Y59925D01*
X373442Y59094D01*
X373247Y58115D01*
X373442Y57136D01*
X373997Y56305D01*
X374827Y55751D01*
X375806Y55556D01*
X376785Y55751D01*
X377616Y56305D01*
X378170Y57136D01*
X378365Y58115D01*
Y38902D02*
X378170Y39882D01*
X377616Y40712D01*
X376785Y41267D01*
X375806Y41461D01*
X374827Y41267D01*
X373997Y40712D01*
X373442Y39882D01*
X373247Y38902D01*
X373442Y37923D01*
X373997Y37093D01*
X374827Y36538D01*
X375806Y36343D01*
X376785Y36538D01*
X377616Y37093D01*
X378170Y37923D01*
X378365Y38902D01*
X366564Y33811D02*
X366851Y32837D01*
X367241Y31898D01*
X367729Y31008D01*
X368309Y30174D01*
X368975Y29406D01*
X369720Y28715D01*
X370533Y28106D01*
X371407Y27589D01*
X372331Y27167D01*
X373295Y26847D01*
X374288Y26631D01*
X375298Y26522D01*
X376314D01*
X377324Y26631D01*
X378317Y26847D01*
X379281Y27167D01*
X380205Y27589D01*
X381079Y28106D01*
X381893Y28715D01*
X382637Y29406D01*
X383303Y30174D01*
X383883Y31008D01*
X384371Y31899D01*
X384761Y32837D01*
X385049Y33811D01*
Y63206D02*
X384761Y64181D01*
X384371Y65119D01*
X383883Y66010D01*
X383303Y66844D01*
X382637Y67611D01*
X381893Y68303D01*
X381079Y68911D01*
X380205Y69429D01*
X379281Y69850D01*
X378317Y70171D01*
X377324Y70387D01*
X376314Y70495D01*
X375298D01*
X374288Y70387D01*
X373295Y70171D01*
X372331Y69850D01*
X371407Y69429D01*
X370533Y68911D01*
X369720Y68303D01*
X368975Y67611D01*
X368309Y66844D01*
X367729Y66010D01*
X367241Y65119D01*
X366851Y64181D01*
X366564Y63206D01*
X681256Y53425D02*
X689256D01*
X681256Y63504D02*
X689256D01*
X701256Y53425D02*
X709256D01*
X691201D02*
X699256D01*
X690256Y54465D02*
X691256Y53465D01*
X689256D02*
X690256Y54465D01*
X701256Y63504D02*
X709256D01*
X691201D02*
X699217D01*
X690256Y62465D02*
X691256Y63465D01*
X689256D02*
X690256Y62465D01*
X671201Y53425D02*
X679256D01*
X671201Y63504D02*
X679216D01*
X710256Y54528D02*
Y62402D01*
X680256Y54465D02*
Y62465D01*
X670256Y54528D02*
Y62402D01*
X709256Y53425D02*
Y53465D01*
Y63465D02*
Y63504D01*
X700256Y54465D02*
X701256Y53465D01*
X699256D02*
X700256Y54465D01*
Y62504D02*
X701256Y63504D01*
X699256Y63465D02*
X699256Y63504D01*
X699256Y63465D02*
X700256Y62465D01*
X699217Y63504D02*
X699256Y63465D01*
X689256Y53425D02*
Y53465D01*
Y63465D02*
Y63504D01*
X680256Y54465D02*
X681256Y53465D01*
X679256Y53465D02*
X680256Y54465D01*
X679216Y63504D02*
X679256Y63465D01*
X680256Y62504D02*
X681256Y63504D01*
X680256Y62465D02*
Y62504D01*
X679256Y63465D02*
X680256Y62465D01*
X679256Y63465D02*
Y63504D01*
X366554Y33811D02*
Y63206D01*
X385058Y33811D02*
Y63206D01*
M02*
