G04*
G04 #@! TF.GenerationSoftware,Altium Limited,Altium Designer,21.2.1 (34)*
G04*
G04 Layer_Color=255*
%FSLAX25Y25*%
%MOIN*%
G70*
G04*
G04 #@! TF.SameCoordinates,E791EE2E-FBA0-4324-A9C2-BCC3054153F0*
G04*
G04*
G04 #@! TF.FilePolarity,Positive*
G04*
G01*
G75*
%ADD22R,0.03543X0.02756*%
%ADD44C,0.06000*%
%ADD45C,0.04874*%
%ADD46R,0.04874X0.04874*%
%ADD47P,0.08523X8X22.5*%
%ADD48R,0.04874X0.04874*%
%ADD49R,0.06500X0.10000*%
%ADD50O,0.06500X0.10000*%
%ADD51O,0.03347X0.04724*%
G04:AMPARAMS|DCode=52|XSize=78.74mil|YSize=78.74mil|CornerRadius=19.68mil|HoleSize=0mil|Usage=FLASHONLY|Rotation=0.000|XOffset=0mil|YOffset=0mil|HoleType=Round|Shape=RoundedRectangle|*
%AMROUNDEDRECTD52*
21,1,0.07874,0.03937,0,0,0.0*
21,1,0.03937,0.07874,0,0,0.0*
1,1,0.03937,0.01968,-0.01968*
1,1,0.03937,-0.01968,-0.01968*
1,1,0.03937,-0.01968,0.01968*
1,1,0.03937,0.01968,0.01968*
%
%ADD52ROUNDEDRECTD52*%
%ADD53C,0.06299*%
%ADD54R,0.06299X0.06299*%
%ADD55C,0.05118*%
%ADD60R,0.01575X0.05906*%
%ADD61R,0.05906X0.07480*%
%ADD62R,0.03937X0.01968*%
G04:AMPARAMS|DCode=63|XSize=127.56mil|YSize=51.58mil|CornerRadius=3.87mil|HoleSize=0mil|Usage=FLASHONLY|Rotation=0.000|XOffset=0mil|YOffset=0mil|HoleType=Round|Shape=RoundedRectangle|*
%AMROUNDEDRECTD63*
21,1,0.12756,0.04384,0,0,0.0*
21,1,0.11982,0.05158,0,0,0.0*
1,1,0.00774,0.05991,-0.02192*
1,1,0.00774,-0.05991,-0.02192*
1,1,0.00774,-0.05991,0.02192*
1,1,0.00774,0.05991,0.02192*
%
%ADD63ROUNDEDRECTD63*%
G04:AMPARAMS|DCode=64|XSize=36.61mil|YSize=51.58mil|CornerRadius=2.75mil|HoleSize=0mil|Usage=FLASHONLY|Rotation=0.000|XOffset=0mil|YOffset=0mil|HoleType=Round|Shape=RoundedRectangle|*
%AMROUNDEDRECTD64*
21,1,0.03661,0.04608,0,0,0.0*
21,1,0.03112,0.05158,0,0,0.0*
1,1,0.00549,0.01556,-0.02304*
1,1,0.00549,-0.01556,-0.02304*
1,1,0.00549,-0.01556,0.02304*
1,1,0.00549,0.01556,0.02304*
%
%ADD64ROUNDEDRECTD64*%
%ADD65O,0.06299X0.01000*%
%ADD66O,0.01000X0.06299*%
D22*
X944193Y382480D02*
D03*
Y376575D02*
D03*
X869488D02*
D03*
Y382480D02*
D03*
D44*
X13307Y150630D02*
D03*
X1109882Y150709D02*
D03*
X505511Y187008D02*
D03*
X1024409Y263386D02*
D03*
D45*
X266929Y52008D02*
D03*
X548031D02*
D03*
X829133D02*
D03*
X922834D02*
D03*
X1016535D02*
D03*
X1110629D02*
D03*
X1054330Y125630D02*
D03*
X913779D02*
D03*
X838582D02*
D03*
X763385D02*
D03*
X688582D02*
D03*
X613385D02*
D03*
X538976D02*
D03*
X463385D02*
D03*
X388582D02*
D03*
X313385D02*
D03*
X172834Y52008D02*
D03*
X79133D02*
D03*
X238582Y125630D02*
D03*
X116535D02*
D03*
X1072834Y202008D02*
D03*
X951180D02*
D03*
X875984D02*
D03*
X801180D02*
D03*
X725590D02*
D03*
X651181D02*
D03*
X575984D02*
D03*
X483503Y150394D02*
D03*
X425984Y202008D02*
D03*
X351181D02*
D03*
X275984D02*
D03*
X200393D02*
D03*
X98031D02*
D03*
X1101180Y274842D02*
D03*
X1007480D02*
D03*
X932283D02*
D03*
X857480D02*
D03*
X782283D02*
D03*
X707086D02*
D03*
X632229D02*
D03*
X557480D02*
D03*
X482283D02*
D03*
X407480D02*
D03*
X332283D02*
D03*
X257480D02*
D03*
X182283D02*
D03*
X88582Y274882D02*
D03*
X1082283Y351614D02*
D03*
X969685D02*
D03*
X894881D02*
D03*
X820078D02*
D03*
X744881D02*
D03*
X670078D02*
D03*
X594881D02*
D03*
X519685D02*
D03*
X444881D02*
D03*
X369685D02*
D03*
X294881D02*
D03*
X220078D02*
D03*
X144881D02*
D03*
X69684D02*
D03*
D46*
X266929Y22008D02*
D03*
X548031D02*
D03*
X829133D02*
D03*
X922834D02*
D03*
X1016535D02*
D03*
X1110629D02*
D03*
X1054330Y95630D02*
D03*
X913779D02*
D03*
X838582D02*
D03*
X763385D02*
D03*
X688582D02*
D03*
X613385D02*
D03*
X538976D02*
D03*
X463385D02*
D03*
X388582D02*
D03*
X313385D02*
D03*
X172834Y22008D02*
D03*
X79133D02*
D03*
X238582Y95630D02*
D03*
X116535D02*
D03*
X1072834Y172008D02*
D03*
X951180D02*
D03*
X875984D02*
D03*
X801180D02*
D03*
X725590D02*
D03*
X651181D02*
D03*
X575984D02*
D03*
X425984D02*
D03*
X351181D02*
D03*
X275984D02*
D03*
X200393D02*
D03*
X98031D02*
D03*
X1101180Y244842D02*
D03*
X1007480D02*
D03*
X932283D02*
D03*
X857480D02*
D03*
X782283D02*
D03*
X707086D02*
D03*
X632229D02*
D03*
X557480D02*
D03*
X482283D02*
D03*
X407480D02*
D03*
X332283D02*
D03*
X257480D02*
D03*
X182283D02*
D03*
X88582Y244882D02*
D03*
X1082283Y321614D02*
D03*
X969685D02*
D03*
X894881D02*
D03*
X820078D02*
D03*
X744881D02*
D03*
X670078D02*
D03*
X594881D02*
D03*
X519685D02*
D03*
X444881D02*
D03*
X369685D02*
D03*
X294881D02*
D03*
X220078D02*
D03*
X144881D02*
D03*
X69684D02*
D03*
D47*
X740513Y131865D02*
D03*
X715513Y121865D02*
D03*
X515513Y131865D02*
D03*
X490513Y121865D02*
D03*
X121756Y356865D02*
D03*
X96756Y346865D02*
D03*
X196757Y356865D02*
D03*
X171757Y346865D02*
D03*
X271757Y356865D02*
D03*
X246757Y346865D02*
D03*
X346757Y356865D02*
D03*
X321757Y346865D02*
D03*
X46756Y356865D02*
D03*
X21756Y346865D02*
D03*
X721757Y356865D02*
D03*
X696757Y346865D02*
D03*
X796757Y356865D02*
D03*
X771757Y346865D02*
D03*
X871757Y356865D02*
D03*
X846757Y346865D02*
D03*
X646757Y356865D02*
D03*
X621757Y346865D02*
D03*
X571757Y356865D02*
D03*
X546757Y346865D02*
D03*
X496757Y356865D02*
D03*
X471757Y346865D02*
D03*
X421757Y356865D02*
D03*
X396757Y346865D02*
D03*
X1087383Y56865D02*
D03*
X1062383Y46865D02*
D03*
X993631Y56865D02*
D03*
X968631Y46865D02*
D03*
X899887Y56865D02*
D03*
X874887Y46865D02*
D03*
X806131Y56865D02*
D03*
X781131Y46865D02*
D03*
X1031131Y131865D02*
D03*
X1006131Y121865D02*
D03*
X890513Y131865D02*
D03*
X865513Y121865D02*
D03*
X815505Y131865D02*
D03*
X790505Y121865D02*
D03*
X665513Y131865D02*
D03*
X640513Y121865D02*
D03*
X590505Y131865D02*
D03*
X565505Y121865D02*
D03*
X440505Y131865D02*
D03*
X415505Y121865D02*
D03*
X365512Y131865D02*
D03*
X340512Y121865D02*
D03*
X290512Y131865D02*
D03*
X265512Y121865D02*
D03*
X215512Y131865D02*
D03*
X190512Y121865D02*
D03*
X1049875Y206865D02*
D03*
X1024875Y196865D02*
D03*
X928013Y206865D02*
D03*
X903013Y196865D02*
D03*
X853013Y206865D02*
D03*
X828013Y196865D02*
D03*
X778005Y206865D02*
D03*
X753005Y196865D02*
D03*
X703013Y206865D02*
D03*
X678013Y196865D02*
D03*
X628005Y206865D02*
D03*
X603005Y196865D02*
D03*
X553005Y206865D02*
D03*
X528005Y196865D02*
D03*
X478001Y206865D02*
D03*
X453001Y196865D02*
D03*
X403007Y206865D02*
D03*
X378007Y196865D02*
D03*
X328007Y206865D02*
D03*
X303007Y196865D02*
D03*
X253001Y206865D02*
D03*
X228001Y196865D02*
D03*
X177324Y207400D02*
D03*
X152324Y197400D02*
D03*
X1078005Y281865D02*
D03*
X1053005Y271865D02*
D03*
X984257Y281865D02*
D03*
X959257Y271865D02*
D03*
X909257Y281865D02*
D03*
X884257Y271865D02*
D03*
X834257Y281865D02*
D03*
X809257Y271865D02*
D03*
X759257Y281865D02*
D03*
X734257Y271865D02*
D03*
X684257Y281865D02*
D03*
X659257Y271865D02*
D03*
X609257Y281865D02*
D03*
X584257Y271865D02*
D03*
X534257Y281865D02*
D03*
X509257Y271865D02*
D03*
X459257Y281865D02*
D03*
X434257Y271865D02*
D03*
X384257Y281865D02*
D03*
X359257Y271865D02*
D03*
X309257Y281865D02*
D03*
X284257Y271865D02*
D03*
X234257Y281865D02*
D03*
X209257Y271865D02*
D03*
X159256Y281865D02*
D03*
X134256Y271865D02*
D03*
X65512Y281865D02*
D03*
X40512Y271865D02*
D03*
X1059257Y356865D02*
D03*
X1034257Y346865D02*
D03*
X946757Y356865D02*
D03*
X921757Y346865D02*
D03*
X524887Y56865D02*
D03*
X499887Y46865D02*
D03*
X243631Y56865D02*
D03*
X218631Y46865D02*
D03*
X149881Y56865D02*
D03*
X124881Y46865D02*
D03*
X56131Y56865D02*
D03*
X31131Y46865D02*
D03*
X93631Y131865D02*
D03*
X68631Y121865D02*
D03*
X74887Y206865D02*
D03*
X49887Y196865D02*
D03*
D48*
X453503Y150394D02*
D03*
D49*
X951107Y379429D02*
D03*
X876107D02*
D03*
D50*
X961107D02*
D03*
X886107D02*
D03*
D51*
X13123Y375083D02*
D03*
X30642D02*
D03*
D52*
X5445Y386599D02*
D03*
X38319D02*
D03*
D53*
X705256Y58465D02*
D03*
X695256D02*
D03*
X685256D02*
D03*
D54*
X675256D02*
D03*
D55*
X375806Y58115D02*
D03*
Y38902D02*
D03*
D60*
X21882Y375083D02*
D03*
X24441D02*
D03*
X19323D02*
D03*
X27000D02*
D03*
X16764D02*
D03*
D61*
X17945Y386894D02*
D03*
X25819Y386894D02*
D03*
D62*
X25727Y364690D02*
D03*
X15098Y364690D02*
D03*
X25727Y360950D02*
D03*
X25727Y357209D02*
D03*
X15098D02*
D03*
Y360950D02*
D03*
D63*
X439862Y30236D02*
D03*
D64*
X448878Y56575D02*
D03*
X439862Y56575D02*
D03*
X430847Y56575D02*
D03*
D65*
X359271Y56776D02*
D03*
Y54808D02*
D03*
Y52839D02*
D03*
Y50871D02*
D03*
X359271Y48902D02*
D03*
Y46934D02*
D03*
X359271Y44965D02*
D03*
X359271Y42997D02*
D03*
Y41028D02*
D03*
Y39060D02*
D03*
X359271Y37091D02*
D03*
Y35123D02*
D03*
X359271Y33154D02*
D03*
X359271Y31186D02*
D03*
Y29217D02*
D03*
Y27249D02*
D03*
X314192D02*
D03*
Y29217D02*
D03*
X314192Y31186D02*
D03*
Y33154D02*
D03*
Y35123D02*
D03*
Y37091D02*
D03*
Y39060D02*
D03*
Y41028D02*
D03*
Y42997D02*
D03*
Y44965D02*
D03*
X314192Y46934D02*
D03*
Y48902D02*
D03*
X314192Y50871D02*
D03*
X314192Y52839D02*
D03*
X314192Y54808D02*
D03*
Y56776D02*
D03*
D66*
X351495Y19473D02*
D03*
X349527D02*
D03*
X347558Y19473D02*
D03*
X345590D02*
D03*
X343621Y19473D02*
D03*
X341653D02*
D03*
X339684D02*
D03*
X337716D02*
D03*
X335747D02*
D03*
X333779Y19473D02*
D03*
X331810Y19473D02*
D03*
X329842D02*
D03*
X327873D02*
D03*
X325905D02*
D03*
X323936Y19473D02*
D03*
X321968D02*
D03*
Y64552D02*
D03*
X323936D02*
D03*
X325905D02*
D03*
X327873D02*
D03*
X329842Y64552D02*
D03*
X331810D02*
D03*
X333779Y64552D02*
D03*
X335747D02*
D03*
X337716D02*
D03*
X339684D02*
D03*
X341653Y64552D02*
D03*
X343621D02*
D03*
X345590Y64552D02*
D03*
X347558D02*
D03*
X349527D02*
D03*
X351495D02*
D03*
M02*
