G04*
G04 #@! TF.GenerationSoftware,Altium Limited,Altium Designer,21.2.1 (34)*
G04*
G04 Layer_Color=128*
%FSLAX25Y25*%
%MOIN*%
G70*
G04*
G04 #@! TF.SameCoordinates,D9DA92A3-D26D-4F9D-A7EC-0AB5783BD49A*
G04*
G04*
G04 #@! TF.FilePolarity,Positive*
G04*
G01*
G75*
%ADD47C,0.00200*%
D47*
X625197Y432677D02*
X631496D01*
X628346Y429528D02*
Y435827D01*
X625197Y396457D02*
X631496D01*
X628346Y393307D02*
Y399606D01*
X637795Y397638D02*
X641732D01*
X639764Y395669D02*
Y399606D01*
X615354Y397638D02*
X619291D01*
X617323Y395669D02*
Y399606D01*
X637795Y410236D02*
X641732D01*
X639764Y408268D02*
Y412205D01*
X615354Y410236D02*
X619291D01*
X617323Y408268D02*
Y412205D01*
X637795Y422835D02*
X641732D01*
X639764Y420866D02*
Y424803D01*
X615354Y422835D02*
X619291D01*
X617323Y420866D02*
Y424803D01*
X637795Y435433D02*
X641732D01*
X639764Y433465D02*
Y437402D01*
X615354Y435433D02*
X619291D01*
X617323Y433465D02*
Y437402D01*
X345689Y83740D02*
X348563D01*
X347126Y82303D02*
Y85177D01*
X345689Y113740D02*
X348563D01*
X347126Y112303D02*
Y115177D01*
X420886Y83740D02*
X423760D01*
X422323Y82303D02*
Y85177D01*
X420886Y113740D02*
X423760D01*
X422323Y112303D02*
Y115177D01*
X495610Y74961D02*
X498484D01*
X497047Y73524D02*
Y76398D01*
X495610Y104961D02*
X498484D01*
X497047Y103524D02*
Y106398D01*
X594463Y110510D02*
X597337D01*
X595900Y109073D02*
Y111947D01*
X569592Y127286D02*
X572466D01*
X571029Y125848D02*
Y128723D01*
X608445Y186929D02*
X611319D01*
X609882Y185492D02*
Y188366D01*
X608445Y216929D02*
X611319D01*
X609882Y215492D02*
Y218366D01*
X158091Y133937D02*
X160965D01*
X159528Y132500D02*
Y135374D01*
X158091Y163937D02*
X160965D01*
X159528Y162500D02*
Y165374D01*
X233090Y139842D02*
X235965D01*
X234528Y138406D02*
Y141279D01*
X233090Y169843D02*
X235965D01*
X234528Y168405D02*
Y171280D01*
X308209Y158425D02*
X311083D01*
X309646Y156988D02*
Y159862D01*
X308209Y188425D02*
X311083D01*
X309646Y186988D02*
Y189862D01*
X383090Y163858D02*
X385965D01*
X384528Y162421D02*
Y165295D01*
X383090Y193858D02*
X385965D01*
X384528Y192421D02*
Y195295D01*
X458287Y158346D02*
X461161D01*
X459724Y156909D02*
Y159783D01*
X458287Y188347D02*
X461161D01*
X459724Y186909D02*
Y189784D01*
X533090Y149291D02*
X535965D01*
X534528Y147854D02*
Y150728D01*
X533090Y179291D02*
X535965D01*
X534528Y177854D02*
Y180728D01*
X158799Y214882D02*
X161673D01*
X160236Y213445D02*
Y216319D01*
X158799Y244882D02*
X161673D01*
X160236Y243445D02*
Y246319D01*
X233090Y214646D02*
X235965D01*
X234528Y213209D02*
Y216083D01*
X233090Y244646D02*
X235965D01*
X234528Y243209D02*
Y246083D01*
X308287Y233543D02*
X311161D01*
X309724Y232106D02*
Y234980D01*
X308287Y263543D02*
X311161D01*
X309724Y262106D02*
Y264980D01*
X383090Y238661D02*
X385965D01*
X384528Y237224D02*
Y240098D01*
X383090Y268661D02*
X385965D01*
X384528Y267224D02*
Y270098D01*
X458287Y233543D02*
X461161D01*
X459724Y232106D02*
Y234980D01*
X458287Y263543D02*
X461161D01*
X459724Y262106D02*
Y264980D01*
X533209Y221772D02*
X536083D01*
X534646Y220335D02*
Y223209D01*
X533209Y251772D02*
X536083D01*
X534646Y250335D02*
Y253209D01*
X158287Y284331D02*
X161161D01*
X159724Y282894D02*
Y285768D01*
X158287Y314331D02*
X161161D01*
X159724Y312894D02*
Y315768D01*
X233012Y290315D02*
X235886D01*
X234449Y288878D02*
Y291752D01*
X233012Y320315D02*
X235886D01*
X234449Y318878D02*
Y321752D01*
X308287Y308740D02*
X311161D01*
X309724Y307303D02*
Y310177D01*
X308287Y338740D02*
X311161D01*
X309724Y337303D02*
Y340177D01*
X383090Y313858D02*
X385965D01*
X384528Y312421D02*
Y315295D01*
X383090Y343858D02*
X385965D01*
X384528Y342421D02*
Y345295D01*
X458287Y308347D02*
X461161D01*
X459724Y306909D02*
Y309784D01*
X458287Y338347D02*
X461161D01*
X459724Y336909D02*
Y339784D01*
X480413Y356299D02*
X483287D01*
X481850Y354862D02*
Y357736D01*
X510413Y356299D02*
X513287D01*
X511850Y354862D02*
Y357736D01*
X159193Y369646D02*
X162067D01*
X160630Y368209D02*
Y371083D01*
X159193Y399646D02*
X162067D01*
X160630Y398209D02*
Y401083D01*
X232933Y364803D02*
X235807D01*
X234370Y363366D02*
Y366240D01*
X232933Y394803D02*
X235807D01*
X234370Y393366D02*
Y396240D01*
X308287Y383543D02*
X311161D01*
X309724Y382106D02*
Y384980D01*
X308287Y413543D02*
X311161D01*
X309724Y412106D02*
Y414980D01*
X383090Y389016D02*
X385965D01*
X384528Y387579D02*
Y390453D01*
X383090Y419016D02*
X385965D01*
X384528Y417579D02*
Y420453D01*
X458287Y383543D02*
X461161D01*
X459724Y382106D02*
Y384980D01*
X458287Y413543D02*
X461161D01*
X459724Y412106D02*
Y414980D01*
X480413Y431496D02*
X483287D01*
X481850Y430059D02*
Y432933D01*
X510413Y431496D02*
X513287D01*
X511850Y430059D02*
Y432933D01*
X560079Y227087D02*
X565984D01*
X563031Y224134D02*
Y230039D01*
X585079Y217087D02*
X590984D01*
X588031Y214134D02*
Y220039D01*
X580079Y227087D02*
X585984D01*
X583032Y224134D02*
Y230039D01*
X565354Y207087D02*
X580709D01*
X573032Y199409D02*
Y214764D01*
X555079Y217087D02*
X560984D01*
X558032Y214134D02*
Y220039D01*
X589488Y207087D02*
X596575D01*
X593032Y203543D02*
Y210630D01*
X549488Y207087D02*
X556575D01*
X553031Y203543D02*
Y210630D01*
X184882Y330236D02*
X190787D01*
X187835Y327284D02*
Y333189D01*
X209882Y320236D02*
X215787D01*
X212835Y317284D02*
Y323189D01*
X204882Y330236D02*
X210787D01*
X207835Y327284D02*
Y333189D01*
X190157Y310236D02*
X205512D01*
X197835Y302559D02*
Y317913D01*
X179882Y320236D02*
X185787D01*
X182835Y317284D02*
Y323189D01*
X214291Y310236D02*
X221378D01*
X217835Y306693D02*
Y313779D01*
X174291Y310236D02*
X181378D01*
X177835Y306693D02*
Y313779D01*
X541535Y256299D02*
X551378D01*
X546457Y251378D02*
Y261221D01*
X628740Y256299D02*
X638583D01*
X633661Y251378D02*
Y261221D01*
X484882Y414094D02*
X490787D01*
X487835Y411142D02*
Y417047D01*
X509882Y404095D02*
X515787D01*
X512835Y401142D02*
Y407047D01*
X504882Y414094D02*
X510787D01*
X507835Y411142D02*
Y417047D01*
X490158Y394094D02*
X505512D01*
X497835Y386417D02*
Y401772D01*
X479882Y404095D02*
X485787D01*
X482835Y401142D02*
Y407047D01*
X514291Y394094D02*
X521378D01*
X517835Y390551D02*
Y397638D01*
X474291Y394094D02*
X481378D01*
X477835Y390551D02*
Y397638D01*
X541339Y424173D02*
X546063D01*
X543701Y421811D02*
Y426535D01*
X541339Y414173D02*
X546063D01*
X543701Y411811D02*
Y416535D01*
X541339Y404173D02*
X546063D01*
X543701Y401811D02*
Y406535D01*
X541339Y394173D02*
X546063D01*
X543701Y391811D02*
Y396535D01*
X541339Y384173D02*
X546063D01*
X543701Y381811D02*
Y386535D01*
X541339Y364173D02*
X546063D01*
X543701Y361811D02*
Y366535D01*
X541339Y354173D02*
X546063D01*
X543701Y351811D02*
Y356535D01*
X541339Y344173D02*
X546063D01*
X543701Y341811D02*
Y346535D01*
X541339Y334173D02*
X546063D01*
X543701Y331811D02*
Y336535D01*
X541339Y324173D02*
X546063D01*
X543701Y321811D02*
Y326535D01*
X541339Y314173D02*
X546063D01*
X543701Y311811D02*
Y316535D01*
X541339Y374173D02*
X546063D01*
X543701Y371811D02*
Y376535D01*
X602339Y424173D02*
X607063D01*
X604701Y421811D02*
Y426535D01*
X602339Y414173D02*
X607063D01*
X604701Y411811D02*
Y416535D01*
X602339Y404173D02*
X607063D01*
X604701Y401811D02*
Y406535D01*
X602339Y394173D02*
X607063D01*
X604701Y391811D02*
Y396535D01*
X602339Y384173D02*
X607063D01*
X604701Y381811D02*
Y386535D01*
X602339Y374173D02*
X607063D01*
X604701Y371811D02*
Y376535D01*
X602339Y364173D02*
X607063D01*
X604701Y361811D02*
Y366535D01*
X602339Y354173D02*
X607063D01*
X604701Y351811D02*
Y356535D01*
X602339Y344173D02*
X607063D01*
X604701Y341811D02*
Y346535D01*
X602339Y334173D02*
X607063D01*
X604701Y331811D02*
Y336535D01*
X602339Y324173D02*
X607063D01*
X604701Y321811D02*
Y326535D01*
X602339Y314173D02*
X607063D01*
X604701Y311811D02*
Y316535D01*
X249488Y403543D02*
X256575D01*
X253031Y400000D02*
Y407087D01*
X289488Y403543D02*
X296575D01*
X293032Y400000D02*
Y407087D01*
X255079Y413543D02*
X260984D01*
X258032Y410591D02*
Y416496D01*
X265354Y403543D02*
X280709D01*
X273031Y395866D02*
Y411221D01*
X280079Y423543D02*
X285984D01*
X283032Y420591D02*
Y426496D01*
X285079Y413543D02*
X290984D01*
X288032Y410591D02*
Y416496D01*
X260079Y423543D02*
X265984D01*
X263032Y420591D02*
Y426496D01*
X184882Y404646D02*
X190787D01*
X187835Y401693D02*
Y407598D01*
X209882Y394646D02*
X215787D01*
X212835Y391693D02*
Y397598D01*
X204882Y404646D02*
X210787D01*
X207835Y401693D02*
Y407598D01*
X190157Y384646D02*
X205512D01*
X197835Y376969D02*
Y392323D01*
X179882Y394646D02*
X185787D01*
X182835Y391693D02*
Y397598D01*
X214291Y384646D02*
X221378D01*
X217835Y381102D02*
Y388189D01*
X174291Y384646D02*
X181378D01*
X177835Y381102D02*
Y388189D01*
X99488Y378740D02*
X106575D01*
X103032Y375197D02*
Y382283D01*
X139488Y378740D02*
X146575D01*
X143032Y375197D02*
Y382283D01*
X105079Y388740D02*
X110984D01*
X108031Y385787D02*
Y391693D01*
X115354Y378740D02*
X130709D01*
X123031Y371063D02*
Y386417D01*
X130079Y398740D02*
X135984D01*
X133031Y395787D02*
Y401693D01*
X135079Y388740D02*
X140984D01*
X138031Y385787D02*
Y391693D01*
X110079Y398740D02*
X115984D01*
X113031Y395787D02*
Y401693D01*
X399488Y403543D02*
X406575D01*
X403031Y400000D02*
Y407087D01*
X439488Y403543D02*
X446575D01*
X443032Y400000D02*
Y407087D01*
X405079Y413543D02*
X410984D01*
X408032Y410591D02*
Y416496D01*
X415354Y403543D02*
X430709D01*
X423032Y395866D02*
Y411221D01*
X430079Y423543D02*
X435984D01*
X433032Y420591D02*
Y426496D01*
X435079Y413543D02*
X440984D01*
X438031Y410591D02*
Y416496D01*
X410079Y423543D02*
X415984D01*
X413031Y420591D02*
Y426496D01*
X334882Y429016D02*
X340787D01*
X337835Y426063D02*
Y431968D01*
X359882Y419016D02*
X365787D01*
X362835Y416063D02*
Y421969D01*
X354882Y429016D02*
X360787D01*
X357835Y426063D02*
Y431968D01*
X340158Y409016D02*
X355512D01*
X347835Y401339D02*
Y416693D01*
X329882Y419016D02*
X335787D01*
X332835Y416063D02*
Y421969D01*
X364291Y409016D02*
X371378D01*
X367835Y405472D02*
Y412559D01*
X324291Y409016D02*
X331378D01*
X327835Y405472D02*
Y412559D01*
X484882Y338898D02*
X490787D01*
X487835Y335945D02*
Y341850D01*
X509882Y328898D02*
X515787D01*
X512835Y325945D02*
Y331850D01*
X504882Y338898D02*
X510787D01*
X507835Y335945D02*
Y341850D01*
X490158Y318898D02*
X505512D01*
X497835Y311221D02*
Y326575D01*
X479882Y328898D02*
X485787D01*
X482835Y325945D02*
Y331850D01*
X514291Y318898D02*
X521378D01*
X517835Y315354D02*
Y322441D01*
X474291Y318898D02*
X481378D01*
X477835Y315354D02*
Y322441D01*
X399488Y328346D02*
X406575D01*
X403031Y324803D02*
Y331890D01*
X439488Y328346D02*
X446575D01*
X443032Y324803D02*
Y331890D01*
X405079Y338347D02*
X410984D01*
X408032Y335394D02*
Y341299D01*
X415354Y328346D02*
X430709D01*
X423032Y320669D02*
Y336024D01*
X430079Y348346D02*
X435984D01*
X433032Y345394D02*
Y351299D01*
X435079Y338347D02*
X440984D01*
X438031Y335394D02*
Y341299D01*
X410079Y348346D02*
X415984D01*
X413031Y345394D02*
Y351299D01*
X334882Y353858D02*
X340787D01*
X337835Y350905D02*
Y356811D01*
X359882Y343858D02*
X365787D01*
X362835Y340905D02*
Y346811D01*
X354882Y353858D02*
X360787D01*
X357835Y350905D02*
Y356811D01*
X340158Y333858D02*
X355512D01*
X347835Y326181D02*
Y341535D01*
X329882Y343858D02*
X335787D01*
X332835Y340905D02*
Y346811D01*
X364291Y333858D02*
X371378D01*
X367835Y330315D02*
Y337402D01*
X324291Y333858D02*
X331378D01*
X327835Y330315D02*
Y337402D01*
X249488Y328740D02*
X256575D01*
X253031Y325197D02*
Y332283D01*
X289488Y328740D02*
X296575D01*
X293032Y325197D02*
Y332283D01*
X255079Y338740D02*
X260984D01*
X258032Y335787D02*
Y341693D01*
X265354Y328740D02*
X280709D01*
X273031Y321063D02*
Y336417D01*
X280079Y348740D02*
X285984D01*
X283032Y345787D02*
Y351693D01*
X285079Y338740D02*
X290984D01*
X288032Y335787D02*
Y341693D01*
X260079Y348740D02*
X265984D01*
X263032Y345787D02*
Y351693D01*
X99488Y304331D02*
X106575D01*
X103032Y300787D02*
Y307874D01*
X139488Y304331D02*
X146575D01*
X143032Y300787D02*
Y307874D01*
X105079Y314331D02*
X110984D01*
X108031Y311378D02*
Y317284D01*
X115354Y304331D02*
X130709D01*
X123031Y296654D02*
Y312008D01*
X130079Y324331D02*
X135984D01*
X133031Y321378D02*
Y327284D01*
X135079Y314331D02*
X140984D01*
X138031Y311378D02*
Y317284D01*
X110079Y324331D02*
X115984D01*
X113031Y321378D02*
Y327284D01*
X484882Y264094D02*
X490787D01*
X487835Y261142D02*
Y267047D01*
X509882Y254095D02*
X515787D01*
X512835Y251142D02*
Y257047D01*
X504882Y264094D02*
X510787D01*
X507835Y261142D02*
Y267047D01*
X490158Y244094D02*
X505512D01*
X497835Y236417D02*
Y251772D01*
X479882Y254095D02*
X485787D01*
X482835Y251142D02*
Y257047D01*
X514291Y244094D02*
X521378D01*
X517835Y240551D02*
Y247638D01*
X474291Y244094D02*
X481378D01*
X477835Y240551D02*
Y247638D01*
X399488Y253543D02*
X406575D01*
X403031Y250000D02*
Y257087D01*
X439488Y253543D02*
X446575D01*
X443032Y250000D02*
Y257087D01*
X405079Y263543D02*
X410984D01*
X408032Y260591D02*
Y266496D01*
X415354Y253543D02*
X430709D01*
X423032Y245866D02*
Y261221D01*
X430079Y273543D02*
X435984D01*
X433032Y270591D02*
Y276496D01*
X435079Y263543D02*
X440984D01*
X438031Y260591D02*
Y266496D01*
X410079Y273543D02*
X415984D01*
X413031Y270591D02*
Y276496D01*
X334882Y278661D02*
X340787D01*
X337835Y275709D02*
Y281614D01*
X359882Y268661D02*
X365787D01*
X362835Y265709D02*
Y271614D01*
X354882Y278661D02*
X360787D01*
X357835Y275709D02*
Y281614D01*
X340158Y258661D02*
X355512D01*
X347835Y250984D02*
Y266339D01*
X329882Y268661D02*
X335787D01*
X332835Y265709D02*
Y271614D01*
X364291Y258661D02*
X371378D01*
X367835Y255118D02*
Y262205D01*
X324291Y258661D02*
X331378D01*
X327835Y255118D02*
Y262205D01*
X249488Y253543D02*
X256575D01*
X253031Y250000D02*
Y257087D01*
X289488Y253543D02*
X296575D01*
X293032Y250000D02*
Y257087D01*
X255079Y263543D02*
X260984D01*
X258032Y260591D02*
Y266496D01*
X265354Y253543D02*
X280709D01*
X273031Y245866D02*
Y261221D01*
X280079Y273543D02*
X285984D01*
X283032Y270591D02*
Y276496D01*
X285079Y263543D02*
X290984D01*
X288032Y260591D02*
Y266496D01*
X260079Y273543D02*
X265984D01*
X263032Y270591D02*
Y276496D01*
X184882Y254646D02*
X190787D01*
X187835Y251693D02*
Y257598D01*
X209882Y244646D02*
X215787D01*
X212835Y241693D02*
Y247598D01*
X204882Y254646D02*
X210787D01*
X207835Y251693D02*
Y257598D01*
X190157Y234646D02*
X205512D01*
X197835Y226969D02*
Y242323D01*
X179882Y244646D02*
X185787D01*
X182835Y241693D02*
Y247598D01*
X214291Y234646D02*
X221378D01*
X217835Y231102D02*
Y238189D01*
X174291Y234646D02*
X181378D01*
X177835Y231102D02*
Y238189D01*
X99488Y228740D02*
X106575D01*
X103032Y225197D02*
Y232283D01*
X139488Y228740D02*
X146575D01*
X143032Y225197D02*
Y232283D01*
X105079Y238740D02*
X110984D01*
X108031Y235787D02*
Y241693D01*
X115354Y228740D02*
X130709D01*
X123031Y221063D02*
Y236417D01*
X130079Y248740D02*
X135984D01*
X133031Y245787D02*
Y251693D01*
X135079Y238740D02*
X140984D01*
X138031Y235787D02*
Y241693D01*
X110079Y248740D02*
X115984D01*
X113031Y245787D02*
Y251693D01*
X484882Y189291D02*
X490787D01*
X487835Y186339D02*
Y192244D01*
X509882Y179291D02*
X515787D01*
X512835Y176339D02*
Y182244D01*
X504882Y189291D02*
X510787D01*
X507835Y186339D02*
Y192244D01*
X490158Y169291D02*
X505512D01*
X497835Y161614D02*
Y176969D01*
X479882Y179291D02*
X485787D01*
X482835Y176339D02*
Y182244D01*
X514291Y169291D02*
X521378D01*
X517835Y165748D02*
Y172835D01*
X474291Y169291D02*
X481378D01*
X477835Y165748D02*
Y172835D01*
X399488Y178347D02*
X406575D01*
X403031Y174803D02*
Y181890D01*
X439488Y178347D02*
X446575D01*
X443032Y174803D02*
Y181890D01*
X405079Y188347D02*
X410984D01*
X408032Y185394D02*
Y191299D01*
X415354Y178347D02*
X430709D01*
X423032Y170669D02*
Y186024D01*
X430079Y198346D02*
X435984D01*
X433032Y195394D02*
Y201299D01*
X435079Y188347D02*
X440984D01*
X438031Y185394D02*
Y191299D01*
X410079Y198346D02*
X415984D01*
X413031Y195394D02*
Y201299D01*
X334882Y203858D02*
X340787D01*
X337835Y200905D02*
Y206811D01*
X359882Y193858D02*
X365787D01*
X362835Y190905D02*
Y196811D01*
X354882Y203858D02*
X360787D01*
X357835Y200905D02*
Y206811D01*
X340158Y183858D02*
X355512D01*
X347835Y176181D02*
Y191535D01*
X329882Y193858D02*
X335787D01*
X332835Y190905D02*
Y196811D01*
X364291Y183858D02*
X371378D01*
X367835Y180315D02*
Y187402D01*
X324291Y183858D02*
X331378D01*
X327835Y180315D02*
Y187402D01*
X249488Y178347D02*
X256575D01*
X253031Y174803D02*
Y181890D01*
X289488Y178347D02*
X296575D01*
X293032Y174803D02*
Y181890D01*
X255079Y188347D02*
X260984D01*
X258032Y185394D02*
Y191299D01*
X265354Y178347D02*
X280709D01*
X273031Y170669D02*
Y186024D01*
X280079Y198346D02*
X285984D01*
X283032Y195394D02*
Y201299D01*
X285079Y188347D02*
X290984D01*
X288032Y185394D02*
Y191299D01*
X260079Y198346D02*
X265984D01*
X263032Y195394D02*
Y201299D01*
X184882Y179842D02*
X190787D01*
X187835Y176890D02*
Y182795D01*
X209882Y169843D02*
X215787D01*
X212835Y166890D02*
Y172795D01*
X204882Y179842D02*
X210787D01*
X207835Y176890D02*
Y182795D01*
X190157Y159843D02*
X205512D01*
X197835Y152165D02*
Y167520D01*
X179882Y169843D02*
X185787D01*
X182835Y166890D02*
Y172795D01*
X214291Y159843D02*
X221378D01*
X217835Y156299D02*
Y163386D01*
X174291Y159843D02*
X181378D01*
X177835Y156299D02*
Y163386D01*
X99291Y153937D02*
X106378D01*
X102835Y150394D02*
Y157480D01*
X139291Y153937D02*
X146378D01*
X142835Y150394D02*
Y157480D01*
X104882Y163937D02*
X110787D01*
X107835Y160984D02*
Y166890D01*
X115157Y153937D02*
X130512D01*
X122835Y146260D02*
Y161614D01*
X129882Y173937D02*
X135787D01*
X132835Y170984D02*
Y176890D01*
X134882Y163937D02*
X140787D01*
X137835Y160984D02*
Y166890D01*
X109882Y173937D02*
X115787D01*
X112835Y170984D02*
Y176890D01*
X544131Y74364D02*
X551218D01*
X547674Y70821D02*
Y77907D01*
X566499Y107526D02*
X573585D01*
X570042Y103982D02*
Y111069D01*
X539227Y84101D02*
X545133D01*
X542180Y81148D02*
Y87054D01*
X551181Y90945D02*
X566535D01*
X558858Y83268D02*
Y98622D01*
X544917Y110419D02*
X550822D01*
X547869Y107466D02*
Y113372D01*
X556003Y108972D02*
X561909D01*
X558956Y106020D02*
Y111925D01*
X533733Y93838D02*
X539638D01*
X536686Y90886D02*
Y96791D01*
X447480Y114882D02*
X453386D01*
X450433Y111929D02*
Y117835D01*
X472480Y104882D02*
X478386D01*
X475433Y101929D02*
Y107835D01*
X467480Y114882D02*
X473386D01*
X470433Y111929D02*
Y117835D01*
X452756Y94882D02*
X468110D01*
X460433Y87205D02*
Y102559D01*
X442480Y104882D02*
X448386D01*
X445433Y101929D02*
Y107835D01*
X476890Y94882D02*
X483976D01*
X480433Y91339D02*
Y98425D01*
X436890Y94882D02*
X443976D01*
X440433Y91339D02*
Y98425D01*
X362087Y103740D02*
X369173D01*
X365630Y100197D02*
Y107283D01*
X402087Y103740D02*
X409173D01*
X405630Y100197D02*
Y107283D01*
X367677Y113740D02*
X373583D01*
X370630Y110787D02*
Y116693D01*
X377953Y103740D02*
X393307D01*
X385630Y96063D02*
Y111417D01*
X392677Y123740D02*
X398583D01*
X395630Y120787D02*
Y126693D01*
X397677Y113740D02*
X403583D01*
X400630Y110787D02*
Y116693D01*
X372677Y123740D02*
X378583D01*
X375630Y120787D02*
Y126693D01*
X297480Y123740D02*
X303386D01*
X300433Y120787D02*
Y126693D01*
X322480Y113740D02*
X328386D01*
X325433Y110787D02*
Y116693D01*
X317480Y123740D02*
X323386D01*
X320433Y120787D02*
Y126693D01*
X302756Y103740D02*
X318110D01*
X310433Y96063D02*
Y111417D01*
X292480Y113740D02*
X298386D01*
X295433Y110787D02*
Y116693D01*
X326890Y103740D02*
X333976D01*
X330433Y100197D02*
Y107283D01*
X286890Y103740D02*
X293976D01*
X290433Y100197D02*
Y107283D01*
X631693Y334252D02*
X636811D01*
X634252Y331693D02*
Y336811D01*
X631693Y309055D02*
X636811D01*
X634252Y306496D02*
Y311614D01*
X152127Y196706D02*
X171419D01*
X161773Y187060D02*
Y206351D01*
X152127Y347099D02*
X171419D01*
X161773Y337454D02*
Y356745D01*
X452127Y206155D02*
X471419D01*
X461773Y196509D02*
Y215800D01*
X452127Y355761D02*
X471419D01*
X461773Y346115D02*
Y365406D01*
X548978Y138438D02*
X568269D01*
X558623Y128792D02*
Y148084D01*
X262798Y238156D02*
X263782D01*
X263290Y237664D02*
Y238648D01*
X262829Y229762D02*
X263813D01*
X263321Y229269D02*
Y230254D01*
X186302Y130637D02*
X187286D01*
X186794Y130144D02*
Y131129D01*
X186302Y137753D02*
X187286D01*
X186794Y137261D02*
Y138245D01*
X337265Y154727D02*
X338250D01*
X337757Y154235D02*
Y155220D01*
X412149Y234632D02*
X413133D01*
X412641Y234140D02*
Y235124D01*
X487125Y227629D02*
X488109D01*
X487617Y227137D02*
Y228121D01*
X412539Y304724D02*
X413524D01*
X413031Y304232D02*
Y305217D01*
X412539Y312008D02*
X413524D01*
X413031Y311516D02*
Y312500D01*
X412204Y380276D02*
X413188D01*
X412696Y379783D02*
Y380768D01*
X412204Y387725D02*
X413188D01*
X412696Y387233D02*
Y388217D01*
X412267Y242561D02*
X413252D01*
X412760Y242069D02*
Y243053D01*
X411516Y158661D02*
X412500D01*
X412008Y158169D02*
Y159153D01*
X411516Y167913D02*
X412500D01*
X412008Y167421D02*
Y168405D01*
X337345Y162208D02*
X338329D01*
X337837Y161716D02*
Y162700D01*
X337500Y310433D02*
X338484D01*
X337992Y309941D02*
Y310925D01*
X337500Y318110D02*
X338484D01*
X337992Y317618D02*
Y318602D01*
X337328Y235039D02*
X338312D01*
X337820Y234547D02*
Y235531D01*
X337328Y243543D02*
X338312D01*
X337820Y243051D02*
Y244035D01*
X337087Y393201D02*
X338071D01*
X337579Y392709D02*
Y393693D01*
X337087Y384871D02*
X338071D01*
X337579Y384379D02*
Y385363D01*
X262106Y155118D02*
X263090D01*
X262598Y154626D02*
Y155610D01*
X262106Y161614D02*
X263090D01*
X262598Y161122D02*
Y162106D01*
X262500Y304724D02*
X263484D01*
X262992Y304232D02*
Y305217D01*
X262500Y312598D02*
X263484D01*
X262992Y312106D02*
Y313090D01*
X262480Y368068D02*
X263464D01*
X262972Y367576D02*
Y368560D01*
X262539Y360653D02*
X263524D01*
X263032Y360161D02*
Y361145D01*
X187343Y210630D02*
X188327D01*
X187835Y210138D02*
Y211122D01*
X187343Y219291D02*
X188327D01*
X187835Y218799D02*
Y219783D01*
X187314Y294436D02*
X188298D01*
X187806Y293944D02*
Y294928D01*
X187314Y286318D02*
X188298D01*
X187806Y285826D02*
Y286810D01*
X187300Y365997D02*
X188284D01*
X187792Y365505D02*
Y366489D01*
X187300Y374160D02*
X188284D01*
X187792Y373668D02*
Y374652D01*
M02*
