G04*
G04 #@! TF.GenerationSoftware,Altium Limited,Altium Designer,21.2.1 (34)*
G04*
G04 Layer_Color=32768*
%FSLAX25Y25*%
%MOIN*%
G70*
G04*
G04 #@! TF.SameCoordinates,D9DA92A3-D26D-4F9D-A7EC-0AB5783BD49A*
G04*
G04*
G04 #@! TF.FilePolarity,Positive*
G04*
G01*
G75*
%ADD46C,0.00197*%
D46*
X342362Y88779D02*
Y108701D01*
Y88779D02*
X343917D01*
X342362Y108701D02*
X343917D01*
X351890Y88779D02*
Y108701D01*
X350335D02*
X351890D01*
X350335Y88779D02*
X351890D01*
X350335Y79173D02*
Y88779D01*
X343917Y79173D02*
Y88779D01*
Y79173D02*
X350335D01*
X343917Y108701D02*
Y118307D01*
X350335Y108701D02*
Y118307D01*
X343917D02*
X350335D01*
X417559Y88779D02*
Y108701D01*
Y88779D02*
X419114D01*
X417559Y108701D02*
X419114D01*
X427087Y88779D02*
Y108701D01*
X425531D02*
X427087D01*
X425531Y88779D02*
X427087D01*
X425531Y79173D02*
Y88779D01*
X419114Y79173D02*
Y88779D01*
Y79173D02*
X425531D01*
X419114Y108701D02*
Y118307D01*
X425531Y108701D02*
Y118307D01*
X419114D02*
X425531D01*
X492283Y80000D02*
Y99921D01*
Y80000D02*
X493839D01*
X492283Y99921D02*
X493839D01*
X501811Y80000D02*
Y99921D01*
X500256D02*
X501811D01*
X500256Y80000D02*
X501811D01*
X500256Y70394D02*
Y80000D01*
X493839Y70394D02*
Y80000D01*
Y70394D02*
X500256D01*
X493839Y99921D02*
Y109528D01*
X500256Y99921D02*
Y109528D01*
X493839D02*
X500256D01*
X572543Y120518D02*
X589058Y109378D01*
X589928Y110668D01*
X572543Y120518D02*
X573413Y121807D01*
X577871Y128417D02*
X594386Y117277D01*
X577001Y127128D02*
X577871Y128417D01*
X593517Y115988D02*
X594386Y117277D01*
X593517Y115988D02*
X601481Y110616D01*
X589928Y110668D02*
X597892Y105296D01*
X601481Y110616D01*
X565449Y127179D02*
X573413Y121807D01*
X569037Y132499D02*
X577001Y127128D01*
X565449Y127179D02*
X569037Y132499D01*
X605118Y191969D02*
Y211890D01*
Y191969D02*
X606673D01*
X605118Y211890D02*
X606673D01*
X614646Y191969D02*
Y211890D01*
X613091D02*
X614646D01*
X613091Y191969D02*
X614646D01*
X613091Y182362D02*
Y191969D01*
X606673Y182362D02*
Y191969D01*
Y182362D02*
X613091D01*
X606673Y211890D02*
Y221496D01*
X613091Y211890D02*
Y221496D01*
X606673D02*
X613091D01*
X154764Y138976D02*
Y158898D01*
Y138976D02*
X156319D01*
X154764Y158898D02*
X156319D01*
X164291Y138976D02*
Y158898D01*
X162736D02*
X164291D01*
X162736Y138976D02*
X164291D01*
X162736Y129370D02*
Y138976D01*
X156319Y129370D02*
Y138976D01*
Y129370D02*
X162736D01*
X156319Y158898D02*
Y168504D01*
X162736Y158898D02*
Y168504D01*
X156319D02*
X162736D01*
X229764Y144882D02*
Y164803D01*
Y144882D02*
X231319D01*
X229764Y164803D02*
X231319D01*
X239291Y144882D02*
Y164803D01*
X237736D02*
X239291D01*
X237736Y144882D02*
X239291D01*
X237736Y135276D02*
Y144882D01*
X231319Y135276D02*
Y144882D01*
Y135276D02*
X237736D01*
X231319Y164803D02*
Y174409D01*
X237736Y164803D02*
Y174409D01*
X231319D02*
X237736D01*
X304882Y163465D02*
Y183386D01*
Y163465D02*
X306437D01*
X304882Y183386D02*
X306437D01*
X314409Y163465D02*
Y183386D01*
X312854D02*
X314409D01*
X312854Y163465D02*
X314409D01*
X312854Y153858D02*
Y163465D01*
X306437Y153858D02*
Y163465D01*
Y153858D02*
X312854D01*
X306437Y183386D02*
Y192992D01*
X312854Y183386D02*
Y192992D01*
X306437D02*
X312854D01*
X379764Y168898D02*
Y188819D01*
Y168898D02*
X381319D01*
X379764Y188819D02*
X381319D01*
X389291Y168898D02*
Y188819D01*
X387736D02*
X389291D01*
X387736Y168898D02*
X389291D01*
X387736Y159291D02*
Y168898D01*
X381319Y159291D02*
Y168898D01*
Y159291D02*
X387736D01*
X381319Y188819D02*
Y198425D01*
X387736Y188819D02*
Y198425D01*
X381319D02*
X387736D01*
X454961Y163386D02*
Y183307D01*
Y163386D02*
X456516D01*
X454961Y183307D02*
X456516D01*
X464488Y163386D02*
Y183307D01*
X462933D02*
X464488D01*
X462933Y163386D02*
X464488D01*
X462933Y153779D02*
Y163386D01*
X456516Y153779D02*
Y163386D01*
Y153779D02*
X462933D01*
X456516Y183307D02*
Y192913D01*
X462933Y183307D02*
Y192913D01*
X456516D02*
X462933D01*
X529764Y154331D02*
Y174252D01*
Y154331D02*
X531319D01*
X529764Y174252D02*
X531319D01*
X539291Y154331D02*
Y174252D01*
X537736D02*
X539291D01*
X537736Y154331D02*
X539291D01*
X537736Y144724D02*
Y154331D01*
X531319Y144724D02*
Y154331D01*
Y144724D02*
X537736D01*
X531319Y174252D02*
Y183858D01*
X537736Y174252D02*
Y183858D01*
X531319D02*
X537736D01*
X155472Y219921D02*
Y239843D01*
Y219921D02*
X157028D01*
X155472Y239843D02*
X157028D01*
X165000Y219921D02*
Y239843D01*
X163445D02*
X165000D01*
X163445Y219921D02*
X165000D01*
X163445Y210315D02*
Y219921D01*
X157028Y210315D02*
Y219921D01*
Y210315D02*
X163445D01*
X157028Y239843D02*
Y249449D01*
X163445Y239843D02*
Y249449D01*
X157028D02*
X163445D01*
X229764Y219685D02*
Y239606D01*
Y219685D02*
X231319D01*
X229764Y239606D02*
X231319D01*
X239291Y219685D02*
Y239606D01*
X237736D02*
X239291D01*
X237736Y219685D02*
X239291D01*
X237736Y210079D02*
Y219685D01*
X231319Y210079D02*
Y219685D01*
Y210079D02*
X237736D01*
X231319Y239606D02*
Y249213D01*
X237736Y239606D02*
Y249213D01*
X231319D02*
X237736D01*
X304961Y238583D02*
Y258504D01*
Y238583D02*
X306516D01*
X304961Y258504D02*
X306516D01*
X314488Y238583D02*
Y258504D01*
X312933D02*
X314488D01*
X312933Y238583D02*
X314488D01*
X312933Y228976D02*
Y238583D01*
X306516Y228976D02*
Y238583D01*
Y228976D02*
X312933D01*
X306516Y258504D02*
Y268110D01*
X312933Y258504D02*
Y268110D01*
X306516D02*
X312933D01*
X379764Y243701D02*
Y263622D01*
Y243701D02*
X381319D01*
X379764Y263622D02*
X381319D01*
X389291Y243701D02*
Y263622D01*
X387736D02*
X389291D01*
X387736Y243701D02*
X389291D01*
X387736Y234095D02*
Y243701D01*
X381319Y234095D02*
Y243701D01*
Y234095D02*
X387736D01*
X381319Y263622D02*
Y273228D01*
X387736Y263622D02*
Y273228D01*
X381319D02*
X387736D01*
X454961Y238583D02*
Y258504D01*
Y238583D02*
X456516D01*
X454961Y258504D02*
X456516D01*
X464488Y238583D02*
Y258504D01*
X462933D02*
X464488D01*
X462933Y238583D02*
X464488D01*
X462933Y228976D02*
Y238583D01*
X456516Y228976D02*
Y238583D01*
Y228976D02*
X462933D01*
X456516Y258504D02*
Y268110D01*
X462933Y258504D02*
Y268110D01*
X456516D02*
X462933D01*
X529882Y226811D02*
Y246732D01*
Y226811D02*
X531437D01*
X529882Y246732D02*
X531437D01*
X539409Y226811D02*
Y246732D01*
X537854D02*
X539409D01*
X537854Y226811D02*
X539409D01*
X537854Y217205D02*
Y226811D01*
X531437Y217205D02*
Y226811D01*
Y217205D02*
X537854D01*
X531437Y246732D02*
Y256339D01*
X537854Y246732D02*
Y256339D01*
X531437D02*
X537854D01*
X154961Y289370D02*
Y309291D01*
Y289370D02*
X156516D01*
X154961Y309291D02*
X156516D01*
X164488Y289370D02*
Y309291D01*
X162933D02*
X164488D01*
X162933Y289370D02*
X164488D01*
X162933Y279764D02*
Y289370D01*
X156516Y279764D02*
Y289370D01*
Y279764D02*
X162933D01*
X156516Y309291D02*
Y318898D01*
X162933Y309291D02*
Y318898D01*
X156516D02*
X162933D01*
X229685Y295354D02*
Y315276D01*
Y295354D02*
X231240D01*
X229685Y315276D02*
X231240D01*
X239213Y295354D02*
Y315276D01*
X237657D02*
X239213D01*
X237657Y295354D02*
X239213D01*
X237657Y285748D02*
Y295354D01*
X231240Y285748D02*
Y295354D01*
Y285748D02*
X237657D01*
X231240Y315276D02*
Y324882D01*
X237657Y315276D02*
Y324882D01*
X231240D02*
X237657D01*
X304961Y313779D02*
Y333701D01*
Y313779D02*
X306516D01*
X304961Y333701D02*
X306516D01*
X314488Y313779D02*
Y333701D01*
X312933D02*
X314488D01*
X312933Y313779D02*
X314488D01*
X312933Y304173D02*
Y313779D01*
X306516Y304173D02*
Y313779D01*
Y304173D02*
X312933D01*
X306516Y333701D02*
Y343307D01*
X312933Y333701D02*
Y343307D01*
X306516D02*
X312933D01*
X379764Y318898D02*
Y338819D01*
Y318898D02*
X381319D01*
X379764Y338819D02*
X381319D01*
X389291Y318898D02*
Y338819D01*
X387736D02*
X389291D01*
X387736Y318898D02*
X389291D01*
X387736Y309291D02*
Y318898D01*
X381319Y309291D02*
Y318898D01*
Y309291D02*
X387736D01*
X381319Y338819D02*
Y348425D01*
X387736Y338819D02*
Y348425D01*
X381319D02*
X387736D01*
X454961Y313386D02*
Y333307D01*
Y313386D02*
X456516D01*
X454961Y333307D02*
X456516D01*
X464488Y313386D02*
Y333307D01*
X462933D02*
X464488D01*
X462933Y313386D02*
X464488D01*
X462933Y303780D02*
Y313386D01*
X456516Y303780D02*
Y313386D01*
Y303780D02*
X462933D01*
X456516Y333307D02*
Y342913D01*
X462933Y333307D02*
Y342913D01*
X456516D02*
X462933D01*
X486890Y361063D02*
X506811D01*
X486890Y359508D02*
Y361063D01*
X506811Y359508D02*
Y361063D01*
X486890Y351535D02*
X506811D01*
Y353091D01*
X486890Y351535D02*
Y353091D01*
X477283D02*
X486890D01*
X477283Y359508D02*
X486890D01*
X477283Y353091D02*
Y359508D01*
X506811D02*
X516417D01*
X506811Y353091D02*
X516417D01*
Y359508D01*
X155866Y374685D02*
Y394606D01*
Y374685D02*
X157421D01*
X155866Y394606D02*
X157421D01*
X165394Y374685D02*
Y394606D01*
X163839D02*
X165394D01*
X163839Y374685D02*
X165394D01*
X163839Y365079D02*
Y374685D01*
X157421Y365079D02*
Y374685D01*
Y365079D02*
X163839D01*
X157421Y394606D02*
Y404213D01*
X163839Y394606D02*
Y404213D01*
X157421D02*
X163839D01*
X229606Y369843D02*
Y389764D01*
Y369843D02*
X231161D01*
X229606Y389764D02*
X231161D01*
X239134Y369843D02*
Y389764D01*
X237579D02*
X239134D01*
X237579Y369843D02*
X239134D01*
X237579Y360236D02*
Y369843D01*
X231161Y360236D02*
Y369843D01*
Y360236D02*
X237579D01*
X231161Y389764D02*
Y399370D01*
X237579Y389764D02*
Y399370D01*
X231161D02*
X237579D01*
X304961Y388583D02*
Y408504D01*
Y388583D02*
X306516D01*
X304961Y408504D02*
X306516D01*
X314488Y388583D02*
Y408504D01*
X312933D02*
X314488D01*
X312933Y388583D02*
X314488D01*
X312933Y378976D02*
Y388583D01*
X306516Y378976D02*
Y388583D01*
Y378976D02*
X312933D01*
X306516Y408504D02*
Y418110D01*
X312933Y408504D02*
Y418110D01*
X306516D02*
X312933D01*
X379764Y394055D02*
Y413976D01*
Y394055D02*
X381319D01*
X379764Y413976D02*
X381319D01*
X389291Y394055D02*
Y413976D01*
X387736D02*
X389291D01*
X387736Y394055D02*
X389291D01*
X387736Y384449D02*
Y394055D01*
X381319Y384449D02*
Y394055D01*
Y384449D02*
X387736D01*
X381319Y413976D02*
Y423583D01*
X387736Y413976D02*
Y423583D01*
X381319D02*
X387736D01*
X454961Y388583D02*
Y408504D01*
Y388583D02*
X456516D01*
X454961Y408504D02*
X456516D01*
X464488Y388583D02*
Y408504D01*
X462933D02*
X464488D01*
X462933Y388583D02*
X464488D01*
X462933Y378976D02*
Y388583D01*
X456516Y378976D02*
Y388583D01*
Y378976D02*
X462933D01*
X456516Y408504D02*
Y418110D01*
X462933Y408504D02*
Y418110D01*
X456516D02*
X462933D01*
X486890Y436260D02*
X506811D01*
X486890Y434705D02*
Y436260D01*
X506811Y434705D02*
Y436260D01*
X486890Y426732D02*
X506811D01*
Y428287D01*
X486890Y426732D02*
Y428287D01*
X477283D02*
X486890D01*
X477283Y434705D02*
X486890D01*
X477283Y428287D02*
Y434705D01*
X506811D02*
X516417D01*
X506811Y428287D02*
X516417D01*
Y434705D01*
M02*
