G04*
G04 #@! TF.GenerationSoftware,Altium Limited,Altium Designer,21.2.1 (34)*
G04*
G04 Layer_Color=16711935*
%FSLAX25Y25*%
%MOIN*%
G70*
G04*
G04 #@! TF.SameCoordinates,D9DA92A3-D26D-4F9D-A7EC-0AB5783BD49A*
G04*
G04*
G04 #@! TF.FilePolarity,Positive*
G04*
G01*
G75*
%ADD10C,0.01000*%
D10*
X514845Y54993D02*
X514023Y55474D01*
X513169Y55897D01*
X512287Y56257D01*
X511382Y56555D01*
X510459Y56788D01*
X509521Y56956D01*
X508574Y57056D01*
X507622Y57090D01*
X94216Y421096D02*
X93238Y420966D01*
X92282Y420725D01*
X91359Y420375D01*
X90482Y419922D01*
X89664Y419372D01*
X88914Y418731D01*
X88243Y418008D01*
X87659Y417212D01*
X87170Y416356D01*
X86783Y415448D01*
X86503Y414502D01*
X86333Y413530D01*
X86277Y412545D01*
X86277Y130005D02*
X86309Y128996D01*
X86409Y127990D01*
X86573Y126994D01*
X86802Y126010D01*
X87096Y125043D01*
X87451Y124098D01*
X87868Y123178D01*
X88345Y122287D01*
X88878Y121430D01*
X89466Y120608D01*
X90107Y119828D01*
X90798Y119090D01*
X91535Y118400D01*
X92316Y117759D01*
X93137Y117171D01*
X93994Y116638D01*
X94885Y116161D01*
X95805Y115744D01*
X96750Y115389D01*
X97717Y115095D01*
X98701Y114866D01*
X99697Y114702D01*
X100703Y114603D01*
X101712Y114569D01*
X558653Y30126D02*
X559499Y29626D01*
X560441Y29348D01*
X561422Y29309D01*
X562383Y29511D01*
X563266Y29942D01*
X564016Y30576D01*
X564588Y31374D01*
X645533Y439398D02*
X645450Y440350D01*
X645203Y441272D01*
X644799Y442137D01*
X644252Y442919D01*
X643576Y443595D01*
X642794Y444142D01*
X641929Y444546D01*
X641007Y444793D01*
X640056Y444876D01*
X271248Y67123D02*
X271296Y66140D01*
X271441Y65165D01*
X271680Y64210D01*
X272012Y63283D01*
X272433Y62392D01*
X272939Y61547D01*
X273526Y60756D01*
X274188Y60026D01*
X274918Y59365D01*
X275709Y58778D01*
X276553Y58272D01*
X277444Y57851D01*
X278371Y57519D01*
X279327Y57279D01*
X280301Y57135D01*
X281285Y57087D01*
X271260Y101124D02*
X271222Y102132D01*
X271109Y103135D01*
X270922Y104126D01*
X270661Y105100D01*
X270327Y106052D01*
X269924Y106976D01*
X269453Y107868D01*
X268916Y108722D01*
X268317Y109534D01*
X267659Y110298D01*
X266946Y111011D01*
X266182Y111669D01*
X265370Y112268D01*
X264516Y112805D01*
X263624Y113276D01*
X262700Y113680D01*
X261748Y114013D01*
X260774Y114274D01*
X259783Y114461D01*
X258780Y114574D01*
X257772Y114612D01*
X281285Y57087D02*
X507622Y57090D01*
X514845Y54993D02*
X558653Y30126D01*
X609394Y101095D02*
X633661Y161221D01*
X564588Y31374D02*
X609394Y101095D01*
X639370Y185827D02*
X643099Y219290D01*
X633661Y161221D02*
X639370Y185827D01*
X155315Y432480D02*
X170866Y435433D01*
X212795Y442126D01*
X257283Y444884D01*
X94216Y421096D02*
X155315Y432480D01*
X86277Y412545D02*
X86277Y130005D01*
X257283Y444884D02*
X640056Y444876D01*
X643307Y291732D02*
X645533Y439398D01*
X101712Y114569D02*
X257772Y114613D01*
X271248Y67123D02*
X271260Y101124D01*
X643307Y245276D02*
Y291732D01*
X643099Y219290D02*
X643307Y245276D01*
M02*
