G04*
G04 #@! TF.GenerationSoftware,Altium Limited,Altium Designer,21.2.1 (34)*
G04*
G04 Layer_Color=16711935*
%FSLAX25Y25*%
%MOIN*%
G70*
G04*
G04 #@! TF.SameCoordinates,D9DA92A3-D26D-4F9D-A7EC-0AB5783BD49A*
G04*
G04*
G04 #@! TF.FilePolarity,Negative*
G04*
G01*
G75*
%ADD19C,0.07099*%
%ADD20O,0.06706X0.08674*%
%ADD21R,0.06706X0.08674*%
%ADD22R,0.05674X0.05674*%
%ADD23C,0.05674*%
%ADD24P,0.08024X4X191.0*%
%ADD25R,0.05674X0.05674*%
%ADD26C,0.09843*%
%ADD27C,0.12611*%
%ADD28R,0.07887X0.07887*%
%ADD29C,0.07887*%
%ADD30C,0.07874*%
%ADD31C,0.20091*%
D19*
X628346Y432677D02*
D03*
Y396457D02*
D03*
D20*
X639764Y397638D02*
D03*
X617323D02*
D03*
X639764Y410236D02*
D03*
X617323D02*
D03*
X639764Y422835D02*
D03*
X617323D02*
D03*
D21*
X639764Y435433D02*
D03*
X617323D02*
D03*
D22*
X347126Y83740D02*
D03*
X422323D02*
D03*
X497047Y74961D02*
D03*
X609882Y186929D02*
D03*
X159528Y133937D02*
D03*
X234528Y139842D02*
D03*
X309646Y158425D02*
D03*
X384528Y163858D02*
D03*
X459724Y158346D02*
D03*
X534528Y149291D02*
D03*
X160236Y214882D02*
D03*
X234528Y214646D02*
D03*
X309724Y233543D02*
D03*
X384528Y238661D02*
D03*
X459724Y233543D02*
D03*
X534646Y221772D02*
D03*
X159724Y284331D02*
D03*
X234449Y290315D02*
D03*
X309724Y308740D02*
D03*
X384528Y313858D02*
D03*
X459724Y308347D02*
D03*
X160630Y369646D02*
D03*
X234370Y364803D02*
D03*
X309724Y383543D02*
D03*
X384528Y389016D02*
D03*
X459724Y383543D02*
D03*
D23*
X347126Y113740D02*
D03*
X422323D02*
D03*
X497047Y104961D02*
D03*
X571029Y127286D02*
D03*
X609882Y216929D02*
D03*
X159528Y163937D02*
D03*
X234528Y169843D02*
D03*
X309646Y188425D02*
D03*
X384528Y193858D02*
D03*
X459724Y188347D02*
D03*
X534528Y179291D02*
D03*
X160236Y244882D02*
D03*
X234528Y244646D02*
D03*
X309724Y263543D02*
D03*
X384528Y268661D02*
D03*
X459724Y263543D02*
D03*
X534646Y251772D02*
D03*
X159724Y314331D02*
D03*
X234449Y320315D02*
D03*
X309724Y338740D02*
D03*
X384528Y343858D02*
D03*
X459724Y338347D02*
D03*
X511850Y356299D02*
D03*
X160630Y399646D02*
D03*
X234370Y394803D02*
D03*
X309724Y413543D02*
D03*
X384528Y419016D02*
D03*
X459724Y413543D02*
D03*
X511850Y431496D02*
D03*
D24*
X595900Y110510D02*
D03*
D25*
X481850Y356299D02*
D03*
Y431496D02*
D03*
D26*
X563031Y227087D02*
D03*
X588031Y217087D02*
D03*
X583032Y227087D02*
D03*
X558032Y217087D02*
D03*
X187835Y330236D02*
D03*
X212835Y320236D02*
D03*
X207835Y330236D02*
D03*
X182835Y320236D02*
D03*
X487835Y414094D02*
D03*
X512835Y404095D02*
D03*
X507835Y414094D02*
D03*
X482835Y404095D02*
D03*
X258032Y413543D02*
D03*
X283032Y423543D02*
D03*
X288032Y413543D02*
D03*
X263032Y423543D02*
D03*
X187835Y404646D02*
D03*
X212835Y394646D02*
D03*
X207835Y404646D02*
D03*
X182835Y394646D02*
D03*
X108031Y388740D02*
D03*
X133031Y398740D02*
D03*
X138031Y388740D02*
D03*
X113031Y398740D02*
D03*
X408032Y413543D02*
D03*
X433032Y423543D02*
D03*
X438031Y413543D02*
D03*
X413031Y423543D02*
D03*
X337835Y429016D02*
D03*
X362835Y419016D02*
D03*
X357835Y429016D02*
D03*
X332835Y419016D02*
D03*
X487835Y338898D02*
D03*
X512835Y328898D02*
D03*
X507835Y338898D02*
D03*
X482835Y328898D02*
D03*
X408032Y338347D02*
D03*
X433032Y348346D02*
D03*
X438031Y338347D02*
D03*
X413031Y348346D02*
D03*
X337835Y353858D02*
D03*
X362835Y343858D02*
D03*
X357835Y353858D02*
D03*
X332835Y343858D02*
D03*
X258032Y338740D02*
D03*
X283032Y348740D02*
D03*
X288032Y338740D02*
D03*
X263032Y348740D02*
D03*
X108031Y314331D02*
D03*
X133031Y324331D02*
D03*
X138031Y314331D02*
D03*
X113031Y324331D02*
D03*
X487835Y264094D02*
D03*
X512835Y254095D02*
D03*
X507835Y264094D02*
D03*
X482835Y254095D02*
D03*
X408032Y263543D02*
D03*
X433032Y273543D02*
D03*
X438031Y263543D02*
D03*
X413031Y273543D02*
D03*
X337835Y278661D02*
D03*
X362835Y268661D02*
D03*
X357835Y278661D02*
D03*
X332835Y268661D02*
D03*
X258032Y263543D02*
D03*
X283032Y273543D02*
D03*
X288032Y263543D02*
D03*
X263032Y273543D02*
D03*
X187835Y254646D02*
D03*
X212835Y244646D02*
D03*
X207835Y254646D02*
D03*
X182835Y244646D02*
D03*
X108031Y238740D02*
D03*
X133031Y248740D02*
D03*
X138031Y238740D02*
D03*
X113031Y248740D02*
D03*
X487835Y189291D02*
D03*
X512835Y179291D02*
D03*
X507835Y189291D02*
D03*
X482835Y179291D02*
D03*
X408032Y188347D02*
D03*
X433032Y198346D02*
D03*
X438031Y188347D02*
D03*
X413031Y198346D02*
D03*
X337835Y203858D02*
D03*
X362835Y193858D02*
D03*
X357835Y203858D02*
D03*
X332835Y193858D02*
D03*
X258032Y188347D02*
D03*
X283032Y198346D02*
D03*
X288032Y188347D02*
D03*
X263032Y198346D02*
D03*
X187835Y179842D02*
D03*
X212835Y169843D02*
D03*
X207835Y179842D02*
D03*
X182835Y169843D02*
D03*
X107835Y163937D02*
D03*
X132835Y173937D02*
D03*
X137835Y163937D02*
D03*
X112835Y173937D02*
D03*
X542180Y84101D02*
D03*
X547869Y110419D02*
D03*
X558956Y108972D02*
D03*
X536686Y93838D02*
D03*
X450433Y114882D02*
D03*
X475433Y104882D02*
D03*
X470433Y114882D02*
D03*
X445433Y104882D02*
D03*
X370630Y113740D02*
D03*
X395630Y123740D02*
D03*
X400630Y113740D02*
D03*
X375630Y123740D02*
D03*
X300433D02*
D03*
X325433Y113740D02*
D03*
X320433Y123740D02*
D03*
X295433Y113740D02*
D03*
D27*
X546457Y256299D02*
D03*
X633661D02*
D03*
D28*
X543701Y424173D02*
D03*
D29*
Y414173D02*
D03*
Y404173D02*
D03*
Y394173D02*
D03*
Y384173D02*
D03*
Y364173D02*
D03*
Y354173D02*
D03*
Y344173D02*
D03*
Y334173D02*
D03*
Y324173D02*
D03*
Y314173D02*
D03*
Y374173D02*
D03*
X604701Y424173D02*
D03*
Y414173D02*
D03*
Y404173D02*
D03*
Y394173D02*
D03*
Y384173D02*
D03*
Y374173D02*
D03*
Y364173D02*
D03*
Y354173D02*
D03*
Y344173D02*
D03*
Y334173D02*
D03*
Y324173D02*
D03*
Y314173D02*
D03*
D30*
X634252Y334252D02*
D03*
Y309055D02*
D03*
D31*
X161773Y196706D02*
D03*
Y347099D02*
D03*
X461773Y206155D02*
D03*
Y355761D02*
D03*
X558623Y138438D02*
D03*
M02*
