M48
;Layer_Color=9474304
;FILE_FORMAT=2:4
INCH,TZ
;TYPE=PLATED
T1F00S00C0.0098
T2F00S00C0.0287
T4F00S00C0.0472
T5F00S00C0.0512
T6F00S00C0.0591
T7F00S00C0.0709
T8F00S00C0.0984
T9F00S00C0.1535
T10F00S00C0.1929
;TYPE=NON_PLATED
T11F00S00C0.0630
T12F00S00C0.1929
%
T01
X18679Y13064
Y13775
X26260Y15512
X33776Y15473
X48762Y22763
X41264Y23463
X41276Y24256
X41303Y30472
X33799Y31043
X33782Y24354
Y23504
X33784Y16221
X41201Y15866
Y16791
X26260Y16161
X26332Y22976
X26329Y23816
X26299Y30472
X18781Y29444
Y28632
X18783Y21929
Y21063
X18779Y36600
Y37416
X26297Y36807
X26303Y36065
X26299Y31260
X33799Y31811
X33758Y38487
Y39320
X41270Y38772
Y38028
X41303Y31201
T02
X15953Y13394
X23453Y13984
X34713Y11374
Y8374
X42232
Y11374
X49705Y10496
Y7496
X53453Y14929
X57103Y12729
X59590Y11051
X60988Y18693
Y21693
X53465Y22177
Y25177
X53453Y17929
X45972Y18835
Y15835
Y23354
Y26354
Y30835
X38453Y26866
Y23866
Y19386
Y16386
X30965Y15843
Y18843
X30972Y23354
Y26354
Y30874
X23445Y29032
X23453Y24465
Y21465
Y16984
X15953Y16394
X16024Y21488
Y24488
X15972Y28433
Y31433
X16063Y36965
Y39965
X23437Y39480
Y36480
X23445Y32032
X30972Y33874
Y38354
Y41354
X38453Y41902
Y38902
Y34386
Y31386
X45972Y33835
Y38354
Y41354
X48185Y43150
X51185
Y35630
X48185
T04
X54370Y31417
Y32417
Y33417
Y34417
Y35417
Y36417
Y37417
Y38417
Y39417
Y40417
Y41417
Y42417
X60470
Y41417
Y40417
Y39417
Y38417
Y37417
Y36417
Y35417
Y34417
Y33417
Y32417
Y31417
T05
X63425Y30906
Y33425
T06
X29543Y11374
X30043Y12374
X32043
X32543Y11374
X37063
X37563Y12374
X39563
X40063Y11374
X45043Y11488
X44543Y10488
X47543
X47043Y11488
X54787Y11042
X55896Y10897
X53669Y9384
X54218Y8410
X51283Y17929
X50783Y18929
X48783
X48283Y17929
Y25409
X48783Y26409
X50783
X51283Y25409
X56303Y22709
X55803Y21709
X58803
X58303Y22709
X43303Y19835
X43803Y18835
X40803
X41303Y19835
X36283Y19386
X35783Y20386
X33783
X33283Y19386
Y26866
X33783Y27866
X35783
X36283Y26866
X40803Y26354
X41303Y27354
X43303
X43803Y26354
X28803
X28303Y27354
X26303
X25803Y26354
X20783Y25465
X21283Y24465
X18283
X18783Y25465
Y17984
X18283Y16984
X21283
X20783Y17984
X25803Y18835
X26303Y19835
X28303
X28803Y18835
X13283Y17394
X13783Y16394
X10783
X11283Y17394
X10803Y23874
X11303Y24874
X13303
X13803Y23874
Y31433
X13303Y32433
X11303
X10803Y31433
Y38874
X11303Y39874
X13303
X13803Y38874
X18283Y39465
X18783Y40465
X20783
X21283Y39465
X25803Y41354
X26303Y42354
X28303
X28803Y41354
X28303Y34874
X28803Y33874
X25803
X26303Y34874
X20783Y33024
X21283Y32024
X18283
X18783Y33024
X33283Y34386
X33783Y35386
X35783
X36283Y34386
X40803Y33835
X41303Y34835
X43303
X43803Y33835
Y41354
X43303Y42354
X41303
X40803Y41354
X36283Y41902
X35783Y42902
X33783
X33283Y41902
X48783Y41409
X48283Y40409
X51283
X50783Y41409
Y33890
X51283Y32890
X48283
X48783Y33890
T07
X10283Y15394
X14283
X29043Y10374
X33043
X36563
X40563
X44043Y9488
X48043
X54767Y7436
X57004Y10753
X51783Y16929
X47783
Y24409
X51783
X55303Y20709
X59303
X44303Y17835
X40303
X36783Y18386
X32783
Y25866
X36783
X40303Y25354
X44303
X29303
X25303
X21783Y23465
X17783
Y15984
X21783
X25303Y17835
X29303
X21783Y31024
X17783
X14303Y30433
X10303
Y22874
X14303
Y37874
X10303
X17783Y38465
X21783
X25303Y40354
X29303
Y32874
X25303
X32783Y33386
X36783
X40303Y32835
X44303
Y40354
X40303
X36783Y40902
X32783
X47783Y39409
X51783
Y31890
X47783
T08
X63366Y25630
X54646
T09
X12283Y15394
X31043Y10374
X38563
X46043Y9488
X55886Y9094
X57303Y20709
X49783Y24409
Y16929
X42303Y17835
Y25354
X34783Y25866
Y18386
X27303Y17835
Y25354
X19783Y23465
Y15984
Y31024
X12303Y30433
Y22874
Y37874
X19783Y38465
X27303Y40354
Y32874
X34783Y33386
Y40902
X42303Y40354
Y32835
X49783Y31890
Y39409
T10
X55862Y13844
X46177Y20615
X16177Y19671
Y34710
T11
X62835Y39646
Y43268
T12
X46177Y35576
M30
